<?xml version="1.0" encoding="UTF-8"?>
<svg width="1805px" height="464px" viewBox="0 0 1805 464" version="1.1" xmlns="http://www.w3.org/2000/svg" xmlns:xlink="http://www.w3.org/1999/xlink">
    <!-- Generator: Sketch 43.1 (39012) - http://www.bohemiancoding.com/sketch -->
    <title>Group 4</title>
    <desc>Created with Sketch.</desc>
    <defs>
        <path d="M0,93.540507 C0,93.540507 305.579531,269.880231 461.553045,269.880231 C546.633429,269.880231 937.704552,114.402734 1277.95035,91.8342016 C1618.19615,69.2656692 1805,93.540507 1805,93.540507 L1805,463.283333 L0,463.283333 L0,93.540507 Z" id="path-1"></path>
    </defs>
    <g id="Page-1" stroke="none" stroke-width="1" fill="none" fill-rule="evenodd">
        <g id="header-football" transform="translate(0.000000, -1501.000000)">
            <g id="Group" transform="translate(0.000000, 2.000000)">
                <g id="Group-4" transform="translate(0.000000, 1499.000000)">
                    <g id="Rectangle">
                        <use fill="#164167" fill-rule="evenodd" xlink:href="#path-1"></use>
                        <path stroke="#164167" stroke-width="2" d="M1,95.2660106 C1.5871992,95.6012316 2.24644592,95.9764563 2.97637726,96.3906285 C5.82395484,98.00638 9.15727273,99.880449 12.9485543,101.991312 C23.7794102,108.021582 36.108736,114.740704 49.7143372,121.976494 C88.5868092,142.649822 129.897245,163.323086 171.868746,182.61895 C207.561239,199.02812 242.156917,213.699559 275.084592,226.189993 C350.866036,254.936122 414.352499,270.880231 461.553045,270.880231 C482.391822,270.880231 520.220122,262.268183 590.342258,242.598633 C603.844133,238.811301 618.38558,234.667619 638.40885,228.916031 C640.026231,228.451446 679.437576,217.112403 691.530698,213.646548 C737.640966,200.431474 773.59397,190.35377 810.324559,180.463645 C928.83314,148.553874 1032.189,125.187971 1130.64798,109.722676 C1182.2797,101.612702 1231.38615,95.9250065 1278.01654,92.832009 C1380.82236,86.0128901 1475.91376,83.0266153 1562.99283,83.2381322 C1631.02536,83.4033848 1690.44976,85.4963259 1740.96812,88.8819043 C1759.4205,90.1185235 1775.35975,91.4433579 1788.74442,92.7680313 C1793.42759,93.2315221 1797.45656,93.6618317 1800.82616,94.0479131 C1802.00479,94.182957 1803.01662,94.3028012 1803.86102,94.4060649 C1803.90886,94.411915 1803.95518,94.417592 1804,94.4230947 L1804,462.283333 L1,462.283333 L1,95.2660106 Z"></path>
                    </g>
                    <path d="M1386.72635,0 C1647.56389,0 1805,90.25 1805,90.25 L1805,101.280556 C1805,101.280556 1647.56389,100.277778 1386.72635,100.277778 C1089.01667,100.277778 698.400628,285.791667 421.100483,285.791667 C159.441667,285.791667 0,105.291667 0,105.291667 L0,90.25 C0,90.25 159.441667,185.513889 421.100483,185.513889 C698.400628,185.513889 1089.01667,0 1386.72635,0 Z" id="Shape" fill="#62B76E" fill-rule="nonzero"></path>
                </g>
            </g>
        </g>
    </g>
</svg>