<?xml version="1.0" encoding="UTF-8"?>
<svg width="1805px" height="683px" viewBox="0 0 1805 683" version="1.1" xmlns="http://www.w3.org/2000/svg" xmlns:xlink="http://www.w3.org/1999/xlink">
    <!-- Generator: Sketch 43.1 (39012) - http://www.bohemiancoding.com/sketch -->
    <title>Group 4</title>
    <desc>Created with Sketch.</desc>
    <defs>
        <path d="M0,100.040502 C0,100.040502 306.944484,272.680994 462.917998,272.680994 C547.998382,272.680994 937.704552,132.889613 1277.95035,97.3537987 C1618.19615,61.8179844 1805,100.040502 1805,100.040502 L1805,682.227778 L0,682.227778 L0,100.040502 Z" id="path-1"></path>
    </defs>
    <g id="Page-1" stroke="none" stroke-width="1" fill="none" fill-rule="evenodd">
        <g id="header-football" transform="translate(0.000000, -1501.000000)">
            <g id="Group" transform="translate(0.000000, 2.000000)">
                <g id="Group-4" transform="translate(0.000000, 1499.000000)">
                    <g id="Rectangle">
                        <use fill="#164167" fill-rule="evenodd" xlink:href="#path-1"></use>
                        <path stroke="#164167" stroke-width="2" d="M1,101.744403 C1.59384339,102.074866 2.2613874,102.445222 3.00122299,102.854411 C5.86127012,104.436247 9.20905635,106.270981 13.0166382,108.337542 C23.8940815,114.241261 36.2753231,120.81938 49.9368343,127.903328 C88.9690454,148.142827 130.439199,168.382262 172.559707,187.273182 C208.148525,203.234659 242.643641,217.517643 275.48062,229.695873 C351.756977,257.984438 415.587386,273.680994 462.917998,273.680994 C485.071535,273.680994 526.516063,264.885142 602.915568,244.982211 C617.768707,241.112801 633.882725,236.847761 655.434512,231.095356 C662.517671,229.204785 701.742591,218.711608 713.418499,215.597588 C764.283146,202.031745 802.974853,191.916164 842.667057,181.917951 C949.878217,154.912144 1044.04232,134.122425 1133.60901,118.668137 C1184.21416,109.936469 1232.32892,103.124013 1278.05423,98.3483889 C1380.84705,87.6125429 1475.92538,82.9110797 1562.99144,83.244079 C1631.01155,83.5042337 1690.4237,86.7990442 1740.93005,92.1286184 C1759.37654,94.0751454 1775.30999,96.1604345 1788.68893,98.2453384 C1793.36934,98.9747081 1797.39557,99.6518012 1800.76245,100.259224 C1801.93974,100.47162 1802.95025,100.660076 1803.79332,100.822418 C1803.86569,100.836352 1803.93458,100.84966 1804,100.862334 L1804,681.227778 L1,681.227778 L1,101.744403 Z"></path>
                    </g>
                    <path d="M1386.72635,0 C1647.56389,0 1805,90.25 1805,90.25 L1805,101.280556 C1805,101.280556 1647.56389,100.277778 1386.72635,100.277778 C1089.01667,100.277778 698.400628,285.791667 421.100483,285.791667 C159.441667,285.791667 0,105.291667 0,105.291667 L0,90.25 C0,90.25 159.441667,185.513889 421.100483,185.513889 C698.400628,185.513889 1089.01667,0 1386.72635,0 Z" id="Shape" fill="#62B76E" fill-rule="nonzero"></path>
                </g>
            </g>
        </g>
    </g>
</svg>