<svg id="Layer_3" xmlns="http://www.w3.org/2000/svg" width="1800" height="337.191" viewBox="0 0 1800 337.191">
  <g>
    <g>
      <path fill="#B1F2B7" d="M866.82 78.065v87.555h2.907v-17.802h20.706l-13.441-14.525h9.379l-11.631-18.537h3.887z"/>
      <path fill="#408743" d="M866.82 78.065v87.555h-2.906v-17.802h-20.706l13.441-14.525h-9.378l11.629-18.537h-3.886z"/>
    </g>
    <path d="M1382.885 52.191c260.115 0 417.115 90 417.115 90v11s-157-1-417.115-1c-296.885 0-686.419 185-962.951 185C159 337.191 0 157.191 0 157.191v-15s159 95 419.934 95c276.532 0 666.066-185 962.951-185z" fill="#62B76E"/>
    <path d="M984.507 120.162c69.23 11.994 180.313 19.769 305.552 19.769 209.027 0 378.632-21.659 379.995-48.442-70.684-20.447-168.125-39.298-287.169-39.298-121.916 0-259.456 31.199-398.378 67.971z" fill="#83C686"/>
    <ellipse cx="1383.011" cy="78.717" rx="174.505" ry="22.394" fill="#A1E5A7"/>
    <ellipse transform="rotate(-1.72 1699.772 126.704)" cx="1697.036" cy="126.541" rx="35.693" ry="6.921" opacity=".3"/>
    <g>
      <g opacity=".2">
        <g>
          <path d="M966.381 125.052c-6.743 2.619-12.137 7.525-18.182 11.376-5.707 3.635-12.008 6.581-17.603 10.286-1.479.979-1.758 3.403 0 4.317.075.039.151.079.227.118 2.856 1.485 5.385-2.83 2.523-4.317-.075-.039-.151-.079-.227-.118v4.317c5.063-3.353 10.787-6.163 16.029-9.317 6.222-3.745 11.751-9.196 18.562-11.841 2.973-1.154 1.682-5.99-1.329-4.821z"/>
        </g>
      </g>
      <g opacity=".2">
        <g>
          <path d="M964.152 125.876c-3.183 1.175-6.675 1.254-9.942 2.155-3.91 1.078-7.745 2.418-11.611 3.639-7.639 2.413-15.504 4.297-23.32 5.98-3.48.75-6.495 2.604-9.501 4.437-3.647 2.223-7.136 4.702-10.648 7.129-3.221 2.225-6.419 4.41-9.951 6.117-3.753 1.814-7.647 3.265-11.258 5.37.202.262.404.523.606.785 2.812-2.553 7.121-2.759 10.701-3.301 4.625-.7 9.101-1.605 13.787-1.992 9.694-.801 18.47-4.971 27.916-6.907.409-.083.506-.731.119-.914-4.846-2.289-10.974 1.223-15.728 2.377-3.412.829-6.909 1.339-10.343 2.083-3.611.783-7.028 1.051-10.665.273l.12.914c13.961-8.741 31.618-4.719 46-12.328.32-.169.333-.698 0-.863-4.122-2.057-8.897-.792-13.143.208-5.786 1.364-12.311 2.964-18.258 2.134.1.245.199.489.299.734 2.054-3.105 6.825-3.457 10.188-3.893 4.57-.592 9.093-1.496 13.67-2.04 4.616-.548 9.159-.831 13.717-1.828 4.837-1.058 9.511-2.765 13.951-4.941.303-.148.306-.563.102-.785-1.874-2.045-3.466-2.958-6.192-2.054-3.863 1.28-7.167 3.781-10.396 6.176-3.476 2.579-7.04 5.031-10.401 7.763-3.295 2.677-5.925 6.935-9.865 8.646.25.144.501.288.752.432-.484-8.44 10.203-12.447 13.732-19.068.18-.337-.044-.743-.432-.752-4.568-.107-8.726 5.736-11.355 8.771-1.837 2.119-3.673 4.229-5.445 6.403-2.396 2.938-5.02 6.046-8.725 7.292.211.161.422.321.633.482-.114-5.797 6.636-9.583 9.577-13.947.492-.731 1.751-2.918.825-3.803-.966-.923-2.245.16-3.05.789-2.897 2.265-5.196 5.612-7.817 8.21-2.569 2.546-5.367 4.792-8.157 7.084-1.321 1.086-2.666 2.095-4.153 2.941-.812.462-1.696.753-2.594.993-1.628.434-.655-1.17-.34-1.892.706-1.618 1.865-3.655 3.234-4.806.494-.416-.217-1.119-.707-.707-1.907 1.603-4.607 5.615-3.993 8.215.047.201.269.386.482.367 4.241-.379 7.298-3.229 10.473-5.786 4.311-3.473 8.205-7.324 11.9-11.442.771-.859 1.518-1.699 2.38-2.471.427-.549.966-.763 1.617-.643.079.642-.367 1.362-.645 1.906-1.02 2-2.867 3.609-4.409 5.201-2.567 2.65-5.702 5.837-5.624 9.79.006.31.317.588.633.482 5.639-1.896 8.903-7.499 12.678-11.717 1.749-1.954 3.41-3.977 5.223-5.874 1.818-1.902 4.491-4.906 7.359-4.839-.144-.251-.288-.501-.432-.752-3.646 6.841-14.376 10.731-13.869 19.573.023.407.4.584.752.432 2.706-1.174 4.538-3.483 6.514-5.582 2.862-3.041 6.39-5.469 9.745-7.923 3.08-2.252 6.118-4.616 9.35-6.646 1.681-1.056 3.497-1.895 5.38-2.519 2.045-.678 3.355.565 4.655 1.983.033-.262.067-.523.102-.785-4.941 2.42-10.117 4.118-15.502 5.218-5.367 1.096-10.871 1.22-16.28 2.045-4.066.62-8.152 1.187-12.208 1.868-2.897.487-6.182 1.337-7.895 3.928-.163.246-.016.69.299.734 4.968.694 9.922-.457 14.802-1.288 5.161-.879 11.302-3.677 16.36-1.154v-.863c-14.374 7.604-32.013 3.571-46.001 12.328-.346.217-.323.819.12.914 5.58 1.195 10.639-.25 16.105-1.31 3.347-.649 6.628-1.283 9.9-2.262 3.309-.99 7.094-2.867 10.491-1.263.039-.305.079-.609.119-.914-4.966 1.017-9.743 2.689-14.575 4.188-5.213 1.617-10.347 2.46-15.779 2.904-4.293.351-8.392 1.374-12.635 1.999-3.425.504-7.189.946-9.855 3.367-.427.388.122 1.067.606.785 3.35-1.953 6.933-3.396 10.456-4.996 3.574-1.623 6.78-3.765 10.007-5.977 6.334-4.342 13.066-10.136 20.656-11.979 3.589-.871 7.133-1.523 10.689-2.56 3.888-1.133 7.838-2.044 11.736-3.143 3.897-1.098 7.708-2.513 11.594-3.657 3.556-1.046 7.386-1.134 10.854-2.416.599-.219.34-1.186-.267-.962z"/>
        </g>
      </g>
    </g>
    <g opacity=".2">
      <g>
        <g>
          <path d="M1591.25 73.999c5.323.426 10.162 3.163 15.286 4.487 5.752 1.487 11.602 2.58 17.464 3.527-.04-.305-.08-.609-.119-.914-6.43 3.783-13.479 6.248-18.365 12.158-1.992 2.41-3.688 5.046-5.951 7.226-3.348 3.224-7.674 2.922-12.002 3.193-9.031.564-18.082 1.261-27.105.203-2.812-.33-5.633-.766-8.393-1.397-2.68-.613-6.405-1.515-7.823-4.134-.144.251-.288.501-.432.752.949-.092 1.076-.218 1.436-1 .268-.582-.595-1.09-.863-.505-.174.377-.051.455-.572.505-.376.036-.624.397-.432.752 2.401 4.434 9.927 5.035 14.313 5.645 9.36 1.301 18.629.905 28.028.297 3.741-.242 7.881.098 11.388-1.405 2.831-1.213 4.859-3.896 6.677-6.261 2.795-3.637 5.489-6.731 9.438-9.174 3.592-2.222 7.521-3.85 11.162-5.992.344-.202.327-.842-.119-.914-5.867-.948-11.698-2.077-17.464-3.528-5.242-1.319-10.108-4.086-15.552-4.522-.644-.051-.639.949 0 1.001z"/>
        </g>
      </g>
      <g>
        <g>
          <g>
            <path d="M1589.995 70.246c-24.151 1.299-42.763 20.293-60.504 34.619-1.785 1.441-.23 4.238 1.768 4.268 8.024.118 16.101-1.688 23.351-5.11 2.914-1.376.375-5.686-2.523-4.317-6.439 3.04-13.719 4.532-20.827 4.428.589 1.423 1.179 2.845 1.768 4.268 16.553-13.366 34.397-31.94 56.969-33.154 3.205-.175 3.222-5.176-.002-5.002z"/>
          </g>
        </g>
        <g>
          <g>
            <path d="M1546.57 97.091c2.681-.086 5.266.477 7.882.988 2.495.488 4.993.579 7.527.696 5.438.251 10.881.612 16.326.626 5.489.015 10.977-.294 16.459-.544 1.29-.059 2.581-.112 3.872-.163.795-.031 2.467.24 3.157-.165.577-.338.923-1.229 1.394-1.742.949-1.037 2.177-1.812 3.375-2.525.466-.277.213-.872-.252-.932-9.498-1.218-19.049-1.484-28.615-1.255-8.553.205-17.51 1.291-25.602-2.191v.863c4.277-3.239 8.581-6.081 14.159-5.883 3.313.118 6.762 1.081 10.023 1.667 3.093.555 6.198 1.071 9.276 1.704 5.626 1.156 11.471 1.142 17.187 1.351 2.316.085 4.6.898 6.899.272 2.358-.641 4.478-2.171 6.714-3.127.48-.205.208-.927-.252-.932-8.134-.075-16.017-1.986-23.965-3.496-3.781-.719-7.573-1.453-11.381-2.015-3.616-.535-7.538-.379-10.959-1.75.04.304.08.609.119.914 8.912-6.261 18.775-4.6 28.111-.251 7.135 3.324 15.297 7.317 23.227 4.317.248-.094.436-.336.35-.615-2.158-6.988-11.755.88-14.636 3.227-3.325 2.709-6.2 5.759-8.854 9.135-1.969 2.504-3.684 5.691-6.251 7.616-1.737 1.303-4.602.797-6.637.991.118.285.235.569.354.854 2.346-2.583 4.874-4.982 7.37-7.417 2.473-2.412 4.594-5.152 7.053-7.556 3.299-3.224 8.674-6.023 9.804-10.851.062-.265-.079-.541-.35-.615-2.994-.826-5.76-1.599-8.544.164-1.643 1.04-2.904 2.723-4.203 4.135-1.658 1.803-3.289 3.645-4.784 5.587-5.237 6.805-9.743 17.185-20.002 15.95.118.285.235.569.354.854 2.838-3.551 6.958-5.789 10.053-9.111 3.644-3.912 6.675-8.375 9.965-12.569 1.212-1.545 2.581-2.984 3.919-4.418.831-.892 1.854-1.812 2.083-3.063.381-2.079-3.047-2.294-4.331-1.958-2.519.658-4.531 3.215-6.08 5.124-2.065 2.544-3.756 5.366-5.802 7.923-2.814 3.518-5.752 7.019-8.688 10.441-1.655 1.93-3.474 3.862-5.622 5.248-2.249 1.452-5.081 1.445-7.648 1.28.144.251.288.501.432.752 3.75-5.48 8.813-9.86 12.989-14.994 2.021-2.484 3.989-4.895 6.19-7.228 1.958-2.076 3.79-4.25 4.917-6.896.15-.354-.022-.728-.432-.752-9.062-.55-13.525 7.836-18.996 13.535-2.378 2.476-4.708 4.986-7.235 7.314-1.819 1.675-6.561 6.511-9.411 4.823.061.228.12.456.18.684 3.42-5.646 7.974-10.447 12.222-15.461.414-.489-.29-1.2-.707-.707-4.303 5.079-8.914 9.944-12.378 15.664-.142.234-.052.547.18.684 2.211 1.31 4.918-.517 6.71-1.767 3.173-2.211 5.924-5.051 8.592-7.83 2.549-2.654 4.929-5.402 7.29-8.224 3.547-4.239 7.653-8.073 13.555-7.714-.144-.251-.288-.501-.432-.752-1.203 2.825-3.224 5.063-5.308 7.273-2.21 2.343-4.14 4.799-6.167 7.292-4.061 4.991-8.973 9.218-12.622 14.552-.229.335.082.73.432.752 3.035.195 6.374.051 8.888-1.903 3.399-2.644 6.069-6.021 8.734-9.372 1.917-2.412 4.066-4.647 5.91-7.11 1.92-2.563 3.634-5.262 5.694-7.721.906-1.083 1.904-2.098 3.029-2.954.563-.428 1.186-.753 1.85-.991.598-.213 3.653-.334 2.916 1.363-.588 1.354-2.299 2.789-3.33 3.846-1.405 1.439-2.641 3.04-3.821 4.664-2.786 3.83-5.768 7.667-8.998 11.135-2.893 3.106-6.763 5.105-9.428 8.44-.286.358-.097.799.354.854 7.418.893 12.277-4.227 16.232-9.819 2.948-4.169 5.812-8.223 9.261-12.011 1.588-1.744 3.152-3.813 5.402-4.716 1.981-.796 4.439.141 6.372.674-.116-.205-.233-.41-.35-.615-1.142 4.878-7.07 7.808-10.327 11.196-2.134 2.219-4.068 4.602-6.271 6.769-2.486 2.446-5.023 4.833-7.37 7.417-.267.293-.111.898.354.854 3.618-.345 6.352.148 8.927-2.818 3.453-3.977 6.187-8.482 10.027-12.139 2.332-2.221 14.417-13.354 16.458-6.746.116-.205.233-.41.35-.615-9.55 3.612-18.748-3.053-27.362-6.288-8.273-3.107-16.857-2.847-24.214 2.322-.374.263-.291.75.119.914 3.18 1.275 6.771 1.239 10.134 1.639 4.398.524 8.781 1.476 13.132 2.302 7.736 1.47 15.389 3.283 23.305 3.356l-.252-.932c-2.45 1.047-5.014 3.053-7.723 3.244-2.586.182-5.397-.528-8.007-.627-6.758-.257-13.218-1.042-19.869-2.248-5.259-.954-10.94-2.688-16.313-2.34-4.708.305-8.726 3.246-12.347 5.988-.26.196-.387.697 0 .863 7.75 3.335 16.305 2.708 24.535 2.382 10.068-.398 20.188-.081 30.186 1.2l-.252-.932c-1.515.901-2.873 1.912-4.066 3.214-1.602 1.749-4.964 1.144-7.228 1.244-5.485.245-10.968.525-16.459.544-5.442.02-10.892-.375-16.326-.626-2.765-.128-5.433-.302-8.157-.834-2.416-.472-4.778-.929-7.252-.849-.645.02-.647 1.02-.002.999z"/>
          </g>
        </g>
      </g>
    </g>
    <g>
      <ellipse transform="rotate(173.23 1053.873 113.172)" cx="1053.847" cy="113.169" rx="20.587" ry="2.926" opacity=".2" fill="#0F0F0F"/>
      <path d="M1058.683 70.379c-.866 0-1.568.167-1.568.373v2.795c0 .206.702.373 1.568.373s1.568-.167 1.568-.373v-2.795c0-.206-.702-.373-1.568-.373z" fill="#EAAA7A"/>
      <path d="M1062.132 66.08s.142 5.441-2.667 5.824-4.242-1.815-4.242-3.435v-2.876l6.909.487z" fill="#FFC392"/>
      <ellipse cx="1058.683" cy="65.593" rx="3.757" ry="1.229" fill="#303030"/>
      <ellipse cx="1060.522" cy="64.979" rx="3.209" ry=".614" fill="#6D6D6D"/>
      <ellipse cx="1058.831" cy="64.349" rx="3.608" ry="1.244" fill="#3F3F3F"/>
      <path d="M1072.71 81.063l-9.066-1.811c-.059-.015-.118-.026-.18-.036l-.083-.017-.001.008c-.063-.007-.126-.02-.191-.02-1.015 0-1.838.823-1.838 1.838 0 .951.726 1.725 1.651 1.819l8.957 1.813.044.009.048.01.001-.005c.098.016.196.03.299.03 1.015 0 1.838-.823 1.838-1.838-.001-.891-.636-1.633-1.479-1.8z" fill="#FFC392"/>
      <ellipse cx="1059.974" cy="63.105" rx="3.366" ry="1.26" fill="#4C4C4C"/>
      <path fill="#000B35" d="M1053.509 88.835l-1.162 6.525 6.022 1.447 1.096-1.975 7.163 2.789 2.07-5.594-6.565-3.192z"/>
      <ellipse cx="1068.698" cy="95.36" rx="2.823" ry="3.333" fill="#000B35"/>
      <path d="M1065.641 79.073l.005-.003-2.221-4.303-.009.004c-.488-.975-1.486-1.65-2.65-1.65-1.643 0-2.975 1.332-2.975 2.975 0 .454.109.879.292 1.265l-.006.002 2.304 4.458.01-.005c.514.891 1.465 1.497 2.566 1.497 1.643 0 2.975-1.332 2.975-2.975 0-.455-.11-.88-.291-1.265z" fill="#F26688"/>
      <circle cx="1068.725" cy="95.36" r="2.166" fill="#FFC392"/>
      <circle cx="1067.033" cy="107.322" r="2.166" fill="#FFC392"/>
      <circle cx="1073.287" cy="82.864" r="2.563" fill="#F4B382"/>
      <ellipse cx="1055.222" cy="66.85" rx=".923" ry="2.501" fill="#303030"/>
      <path d="M1052.748 75.214l4.366-1.908 3.137-.185s5.681 1.654 1.882 15.714c0 0-3.874 2.107-8.624 0 0 0 2.728-9.303-.761-13.621z" fill="#FF738E"/>
      <path d="M1059.174 80.728l.005-.003-2.221-4.303-.009.004c-.488-.975-1.486-1.65-2.65-1.65-1.643 0-2.975 1.332-2.975 2.975 0 .454.109.879.292 1.265l-.006.002 2.304 4.458.01-.005c.514.891 1.465 1.497 2.566 1.497 1.643 0 2.975-1.332 2.975-2.975 0-.455-.11-.881-.291-1.265z" fill="#FC90AA"/>
      <path d="M1059.243 81.717l-2.066-.811c-.059-.015-.118-.026-.18-.036l-.083-.017-.001.008c-.063-.007-.126-.02-.191-.02-1.015 0-1.838.823-1.838 1.838 0 .951.726 1.725 1.651 1.819l1.957.813.092.019s.197.025.3.025c1.015 0 1.838-.823 1.838-1.838 0-.891-.636-1.633-1.479-1.8z" fill="#FFC9A4"/>
      <circle cx="1059.456" cy="83.312" r="2.563" fill="#FFC392"/>
      <path fill="#FFC392" d="M1066.621 94.867l-1.754 12.33 4.259.682 1.714-12.165z"/>
      <circle cx="1055.395" cy="96.144" r="3.048" fill="#000B35"/>
      <circle cx="1055.395" cy="96.144" r="2.166" fill="#FFC392"/>
      <circle cx="1053.229" cy="110.312" r="2.166" fill="#FFC392"/>
      <path d="M1056.604 111.728s.334 1.173.005 1.441c0 0-3.225 1.914-6.392-.086 0 0-.259-.251.173-1.355h6.214z" fill="#0F0F0F"/>
      <path fill="#FFC392" d="M1053.377 95.36l-2.003 13.934 4.291.42 1.896-13.302z"/>
      <path d="M1056.608 111.881c0 1.717-6.219 1.717-6.219 0s1.392-3.109 3.109-3.109 3.11 1.392 3.11 3.109z" fill="#510021"/>
      <path d="M1074.098 109.267s.202 1.543-.735 1.817-6.706 1.441-9.832-.122c0 0-.832-.625 0-1.396s10.567-.299 10.567-.299z" fill="#0F0F0F"/>
      <path d="M1064.258 107.113c1.229-.371 2.417 1.715 5.125.328 0 0 6.255.456 4.375 2.792-.854 1.03-9.499 1.259-10.011-.063-.415-.655-.23-2.833.511-3.057z" fill="#510021"/>
      <path d="M1056.925 67.793s.787-.491 1.795-.185M1059.292 67.65s.787-.491 1.796-.184" fill="#6B4224"/>
      <circle cx="1060.19" cy="68.059" r=".249" fill="#6B4224"/>
      <circle cx="1057.631" cy="68.305" r=".249" fill="#6B4224"/>
      <path d="M1059.105 68.481s.444 1.528 0 1.74" fill="#6B4224"/>
      <ellipse cx="1058.411" cy="71.04" rx=".42" ry=".53" fill="#6B4224"/>
      <circle cx="1072.21" cy="111.477" r=".507" fill="#0F0F0F"/>
      <circle cx="1070.984" cy="111.761" r=".506" fill="#0F0F0F"/>
      <circle cx="1069.706" cy="111.972" r=".506" fill="#0F0F0F"/>
      <circle cx="1066.03" cy="111.761" r=".506" fill="#0F0F0F"/>
      <circle cx="1055.628" cy="113.864" r=".506" fill="#0F0F0F"/>
      <circle cx="1053.34" cy="114.095" r=".506" fill="#0F0F0F"/>
      <circle cx="1051.063" cy="113.589" r=".506" fill="#0F0F0F"/>
      <circle cx="1064.597" cy="111.477" r=".506" fill="#0F0F0F"/>
    </g>
    <g>
      <path d="M1219.577 52.973c-1.793.518-2.827 2.391-2.309 4.184.128.445.341.844.615 1.184.281.347.626.632 1.012.843l3.875 3.229.008-.009c.841.806 2.068 1.166 3.268.819 1.794-.518 2.827-2.391 2.31-4.184-.19-.66-.567-1.215-1.054-1.63l.001-.001-.013-.01c-.011-.01-.022-.019-.034-.029l-4.4-3.566c-.14-.136-.289-.256-.449-.365l-.089-.071-.006.006c-.788-.497-1.769-.679-2.735-.4z" fill="#8FE1E5"/>
      <circle cx="1225.095" cy="60.512" r="2.329" fill="#D8996F"/>
      <circle cx="1228.053" cy="59.785" r="3.379" fill="#EAAA7A"/>
      <path d="M1213.392 51.347l3.16-.286 3.729.749s5.242 6.42-2.9 18.217c0 0-6.361 2.455-9.117 0-.001 0 6.843-11.138 5.128-18.68z" fill="#B0F8FF"/>
      <g fill="#D8996F">
        <ellipse transform="rotate(11.363 1218.138 51.376)" cx="1218.416" cy="51.436" rx="1.902" ry=".596"/>
        <ellipse transform="rotate(11.363 1219.022 48.56)" cx="1218.991" cy="48.576" rx="1.901" ry=".595"/>
        <path d="M1216.497 51.0273l.575-2.8608 3.7285.7496-.5752 2.861z"/>
      </g>
      <g>
        <path d="M1224.64 43.064l-.595 2.012s.955 2.383.51 2.999c-.18.25-1.217.184-1.217.184s-.581 2.125-.99 2.386c-2.191.876-4.76-.535-4.76-.535-1.716-1.055-2.926-2.498-2.614-5.8l3.381-4.159 6.285 2.913z" fill="#EAAA7A"/>
        <g>
          <path d="M1214.62 45.264s3.242-1.144 3.493-2.971c.181-1.313 3.576-.025 4.698.354 0 0-2.072-2.721-4.538-3.656-2.463-.936-3.89 3.291-3.653 6.273z" fill="#1C1C1C"/>
          <ellipse transform="rotate(20.265 1221.524 41.135)" cx="1221.595" cy="41.23" rx="5.146" ry=".908" fill="#262626"/>
          <ellipse transform="rotate(20.265 1220.034 39.703)" cx="1220.158" cy="39.686" rx="3.264" ry=".95" fill="#353535"/>
          <ellipse transform="rotate(20.254 1223.636 40.434)" cx="1223.631" cy="40.425" rx="3.515" ry="1.46" fill="#515151"/>
        </g>
        <g>
          <path d="M1213.638 43.658s3.242-1.144 3.493-2.971c.181-1.313 3.576-.025 4.698.354 0 0-2.072-2.721-4.538-3.656-2.464-.935-3.891 3.292-3.653 6.273z" fill="#1C1C1C"/>
          <ellipse transform="rotate(20.265 1220.54 39.53)" cx="1220.613" cy="39.624" rx="5.146" ry=".908" fill="#262626"/>
          <ellipse transform="rotate(20.265 1219.052 38.098)" cx="1219.176" cy="38.081" rx="3.264" ry=".95" fill="#353535"/>
          <ellipse transform="rotate(20.254 1222.654 38.83)" cx="1222.649" cy="38.82" rx="3.515" ry="1.46" fill="#515151"/>
        </g>
        <path fill="#7C4E2C" d="M1222.765 45.264l-1.911-.537.742.537-.226.549M1222.89 49.575s-.709.648-1.441 0"/>
        <ellipse cx="1215.339" cy="46.071" rx=".745" ry="2.13" fill="#262626"/>
      </g>
      <ellipse cx="1199.328" cy="98.578" rx="22.726" ry="4.012" opacity=".2"/>
      <circle cx="1208.262" cy="58.983" r="2.313" fill="#EAAA7A"/>
      <g fill="#EAAA7A">
        <circle cx="1207.842" cy="79.237" r="3.053"/>
        <circle cx="1200.723" cy="92.981" r="3.053"/>
        <path d="M1205.069 77.96l-7.07 13.647 5.445 2.749 6.991-13.512z"/>
      </g>
      <path d="M1212.403 78.52c2.141-2.99 4.977-8.493 4.977-8.493l-9.404.3-2.572 5.042.004.003c-.212.477-.335 1.002-.335 1.558 0 2.122 1.72 3.842 3.842 3.842.59 0 1.143-.144 1.642-.381.007-.001.013 0 .02-.001.123-.028.267-.115.425-.241.609-.396 1.097-.961 1.401-1.629z" fill="#3A3A3A"/>
      <g fill="#EAAA7A">
        <path d="M1205.949 58.56l-3.161 10.939 4.408.972 3.17-10.537z"/>
        <circle cx="1203.775" cy="70.471" r="3.379"/>
      </g>
      <path d="M1216.771 54.727c0-1.866-1.513-3.379-3.379-3.379-.464 0-.906.094-1.309.264h-.001c-.411.173-.78.426-1.09.738l-4.177 2.827.006.01c-1.008.585-1.693 1.663-1.693 2.913 0 1.867 1.513 3.379 3.379 3.379.688 0 1.325-.208 1.859-.561v.002l.014-.009c.013-.008.024-.017.037-.026l4.647-3.237c.169-.097.326-.207.476-.331l.093-.065-.005-.008c.695-.62 1.143-1.513 1.143-2.517z" fill="#CAFDFF"/>
      <g fill="#EAAA7A">
        <circle cx="1220.94" cy="76.087" r="3.052"/>
        <circle cx="1213.82" cy="89.832" r="3.053"/>
        <path d="M1218.167 74.811l-7.069 13.647 5.445 2.749 6.989-13.512z"/>
      </g>
      <g fill="#4C4C4C">
        <circle cx="1211.103" cy="72.161" r="4.096"/>
        <circle cx="1219.829" cy="75.955" r="4.096"/>
        <path d="M1212.62 68.357l8.75 3.804-3.01 7.614-9.737-4.366z"/>
      </g>
      <g>
        <path d="M1208.781 93.252s-1.427 1.257-.134 2.281c0 0 7.394 3.089 12.374 2.297 0 0 1.294-.367.97-1.504-.33-1.154-13.21-3.074-13.21-3.074z" fill="#BCBCBC"/>
        <path d="M1211.226 89.832s.273 3.124 3.974 2.023c0 0 1.264-.722 2.115.235 0 0 1.907 1.832 3.626 2.266s1.319 2.909-.086 2.817c0 0-6.811.276-11.582-2.292 0 0-1.191-.367 0-3.301 1.192-2.934 1.706-3.497 1.953-1.748z" fill="#DDD"/>
      </g>
      <g>
        <path d="M1195.218 92.203s-1.874.321-1.311 1.871c0 0 4.67 6.511 9.323 8.453 0 0 1.294.367 1.615-.771.327-1.156-9.627-9.553-9.627-9.553z" fill="#BCBCBC"/>
        <path d="M1199.095 90.575s-1.408 2.802 2.319 3.809c0 0 1.455.049 1.676 1.311 0 0 .661 2.561 1.896 3.832 1.235 1.272-.405 3.169-1.553 2.354 0 0-5.941-3.342-8.652-8.033 0 0-.822-.938 1.733-2.81s3.289-2.081 2.581-.463z" fill="#DDD"/>
      </g>
      <circle cx="1219.295" cy="97.959" r=".617" fill="#BCBCBC"/>
      <circle cx="1217.49" cy="97.96" r=".617" fill="#BCBCBC"/>
      <circle cx="1215.691" cy="97.663" r=".617" fill="#BCBCBC"/>
      <circle cx="1211.385" cy="96.679" r=".617" fill="#BCBCBC"/>
      <circle cx="1209.565" cy="96.061" r=".617" fill="#BCBCBC"/>
      <circle cx="1202.457" cy="102.376" r=".617" fill="#BCBCBC"/>
      <circle cx="1200.723" cy="101.111" r=".617" fill="#BCBCBC"/>
      <circle cx="1199.327" cy="100.164" r=".617" fill="#BCBCBC"/>
      <circle cx="1195.558" cy="96.679" r=".617" fill="#BCBCBC"/>
      <circle cx="1194.419" cy="94.974" r=".617" fill="#BCBCBC"/>
    </g>
    <g>
      <path d="M1301.701 79.154c.091 1.09-2.67 2.21-6.168 2.504-3.498.293-6.371.014-6.463-1.076-.091-1.09 2.634-2.576 6.132-2.87 3.498-.294 6.408.352 6.499 1.442z" fill="#070707"/>
      <g fill="#EAAA7A">
        <circle cx="1303.025" cy="90.81" r="3.566"/>
        <circle cx="1311.696" cy="104.781" r="3.566"/>
        <path d="M1306.038 88.903l8.604 13.874-5.964 3.904-8.862-14.318z"/>
      </g>
      <g fill="#C17700">
        <circle cx="1299.86" cy="63.164" r="3.494"/>
        <circle cx="1306.599" cy="66.298" r="3.494"/>
        <path d="M1301.042 59.878l6.783 3.15-2.404 6.557-7.826-3.761z"/>
      </g>
      <g fill="#210028">
        <circle cx="1301.94" cy="90.703" r="4.731"/>
        <path d="M1300.646 80.486l5.146 7.477-7.757 5.251-4.733-7.773s-4.667.127-3.245-5.786c1.191-2.248 10.677-1.125 10.677-1.125l-.088 1.956z"/>
      </g>
      <g>
        <circle cx="1290.058" cy="90.692" r="3.566" fill="#EAAA7A"/>
        <circle cx="1274.879" cy="89.648" r="3.566" fill="#EAAA7A"/>
        <path fill="#EAAA7A" d="M1290.059 94.258l-15.179-1.044v-7.131l15.179 1.044z"/>
        <g>
          <path d="M1269.485 85.622s-1.885-1.034-2.477.734c0 0-.444 9.048 2.311 14.04 0 0 .888 1.234 1.973.453 1.101-.794-1.807-15.227-1.807-15.227z" fill="#262626"/>
          <path d="M1274.062 86.907s-3.216 1.491-.625 5.003c0 0 1.254 1.066.563 2.338 0 0-1.216 2.732-1.017 4.726.199 1.995-2.586 2.521-3.029.991 0 0-2.91-7.135-2.012-13.195 0 0-.066-1.408 3.511-1.268 3.576.14 4.373.47 2.609 1.405z" fill="#353535"/>
        </g>
      </g>
      <g fill="#2E0035">
        <circle cx="1290.686" cy="88.483" r="4.731"/>
        <path d="M1289.727 81.419l-3.016 4.503 8.224 4.634 4.613-10.07s-7.856-.942-9.821.933z"/>
      </g>
      <g>
        <path d="M1310.359 111.894s-.132 2.375 1.914 2.124c0 0 9.247-3.869 12.917-8.999 0 0 .811-1.475-.487-2.186-1.315-.72-14.344 9.061-14.344 9.061z" fill="#262626"/>
        <path d="M1309.463 106.712s3.021 2.5 5.293-1.761c0 0 .468-1.758 2.067-1.677 0 0 3.307-.087 5.205-1.237 1.896-1.149 3.747 1.381 2.432 2.551 0 0-5.738 6.307-12.217 8.299 0 0-1.375.738-2.941-2.9-1.565-3.64-1.613-4.591.161-3.275z" fill="#353535"/>
      </g>
      <path d="M1295.644 58.497l-7.447-.319v6.988s4.15 2.206 1.42 12.733l-.546 2.684s.001-2.771 12.56-1.636c0 0 4.04-18.136-2.262-19.599-4.389-1.019-3.725-.851-3.725-.851z" fill="#D88B03"/>
      <ellipse transform="rotate(92.952 1300.15 47.59)" cx="1300.198" cy="47.604" rx="1.793" ry="4.071" fill="#494949"/>
      <circle cx="1288.196" cy="61.672" r="3.494" fill="#EF9F20"/>
      <path fill="#D8996F" d="M1287.639 64.097l2 .921-1.443-2.214z"/>
      <circle cx="1288.196" cy="61.672" r="2.489" fill="#EAAA7A"/>
      <path d="M1306.599 69.147s3.087.967 3.146.981-1.572-2.395-1.572-2.395l-1.574 1.414z" fill="#D8996F"/>
      <circle cx="1290.835" cy="61.672" r="3.556" fill="#EAAA7A"/>
      <circle cx="1306.961" cy="66.658" r="2.489" fill="#D8996F"/>
      <circle cx="1310.517" cy="66.658" r="3.556" fill="#EAAA7A"/>
      <circle cx="1323.743" cy="106.476" r="7.553" fill="#EAEAEF"/>
      <path d="M1330.418 103.216c-.562-.345-1.122-.473-1.23-.496-.061-.077-.137-.181-.235-.298-.117-.127-.259-.275-.412-.431-.08-.072-.164-.149-.248-.227-.086-.076-.171-.155-.26-.229-.183-.146-.357-.297-.536-.423-.174-.13-.339-.249-.483-.344-.123-.082-.228-.148-.312-.2-.043-.138-.214-.654-.48-1.065-.795-.285-1.652-.441-2.547-.441-.41 0-.812.033-1.204.096-.314.225-.683.552-.907.965 0 0 .027.005.071.017-.023.006-.052.015-.089.026-.093.031-.227.071-.385.126-.083.024-.162.066-.25.105-.088.041-.179.084-.273.129-.097.044-.191.097-.286.153-.094.056-.191.113-.288.169-.097.057-.185.125-.276.186-.092.063-.18.125-.264.187-.165.131-.32.248-.443.363-.116.102-.208.192-.276.259-.38-.028-.914.203-1.282.393-.646.905-1.094 1.958-1.288 3.098.157.608.438.992.563 1.142-.002.092-.003.199-.002.319.008.197.013.428.04.673.021.246.064.506.112.766.029.129.055.258.089.384.034.125.065.249.106.365.041.118.075.232.122.336.045.105.084.206.128.294.02.041.039.079.059.116-.111.296-.085.744-.031 1.116.657.969 1.532 1.775 2.557 2.351.563.035.991-.079 1.22-.162.105.048.257.12.446.188.189.067.413.142.657.204.121.031.249.057.379.084.131.019.265.045.398.059.132.012.267.03.4.031.132.007.264.009.39.001.127-.001.249-.011.362-.028.116-.016.225-.024.323-.048.082-.016.155-.034.225-.049.171.119.491.303.934.407 1.264-.353 2.395-1.024 3.298-1.925.041-.346.067-.784.008-1.115.018-.021.035-.042.055-.064.052-.059.103-.131.159-.208.058-.077.119-.161.177-.255.058-.093.127-.188.183-.295.057-.106.122-.211.174-.327.054-.115.111-.23.159-.349.05-.118.098-.237.138-.356.046-.117.078-.239.115-.353.066-.231.113-.45.147-.639.023-.121.036-.227.046-.319.372-.165.66-.562.854-.917.001-.051.004-.1.004-.151-.002-1.218-.294-2.372-.811-3.394zm-6.402-2.125c.001.001.001.001 0 0 .001.001.278-.343 2.677-.482.071.061.162.139.268.228.266.223.621.518.976.814.09.072.175.15.261.222.087.074.172.146.255.216.159.146.309.28.44.393.112.109.206.199.276.268.094 1.768-.144 2.567-.171 2.653-.062.009-.132.021-.206.035-.311.056-.72.141-1.127.238-.407.099-.812.209-1.112.301-.14.042-.256.083-.341.11l-2.492-2.123c.015-.081.035-.179.052-.293.052-.316.107-.74.151-1.165.042-.424.073-.85.087-1.17.003-.092.004-.174.006-.245zm-6.499 8.611c-.015-.038-.031-.078-.048-.119-.037-.09-.066-.192-.102-.297-.038-.105-.063-.22-.099-.337-.038-.115-.059-.24-.094-.363-.031-.123-.054-.251-.082-.378-.025-.127-.048-.255-.071-.381-.017-.127-.044-.25-.059-.371-.035-.241-.064-.468-.084-.663-.01-.091-.019-.175-.026-.25.005.007.011.01.011.01.068-.657 1.486-2.074 1.486-2.074.033-2.004.519-2.627.519-2.627-.006 0-.012 0-.016-.001.074-.054.17-.119.278-.197.135-.099.299-.203.468-.322.087-.057.177-.115.268-.175.092-.058.18-.124.275-.179.095-.057.19-.114.282-.171.093-.056.183-.115.274-.162.091-.05.179-.099.261-.145.084-.045.16-.095.236-.128.149-.07.272-.135.36-.177.041-.021.074-.038.097-.05.301.074 1.336.354 2.316.92-.014.075-.03.162-.046.261-.051.317-.106.741-.15 1.165-.043.425-.073.851-.087 1.171-.005.101-.006.19-.008.267l-.004-.002-2.81 1.676c-.063-.037-.143-.083-.235-.132-.243-.132-.573-.296-.909-.449-.334-.152-.676-.294-.935-.391-.128-.05-.239-.085-.315-.113-.077-.026-.12-.04-.12-.04s.038.025.108.066c.071.04.17.099.293.165.242.131.572.295.907.448.335.152.676.293.935.391.096.037.18.065.248.089l.747 3.222c-.06.058-.146.137-.241.235-.202.204-.462.484-.712.771-.251.288-.492.584-.665.813-.07.09-.127.17-.173.234-1.574-.522-2.141-1.055-2.278-1.21zm7.113 3.667s.025.023.072.057c-.052.005-.105.012-.162.02-.099.016-.207.016-.319.022-.113.009-.232.006-.356.005-.123.003-.251-.008-.381-.015-.129-.004-.26-.021-.391-.036-.131-.011-.262-.036-.39-.053-.126-.025-.255-.043-.375-.069-.243-.051-.469-.101-.662-.156-.172-.049-.319-.09-.428-.125.092-.036.144-.063.144-.063-.604-.258-1.535-2.013-1.544-2.03.056-.052.122-.116.197-.193.201-.203.462-.482.712-.771.251-.288.491-.584.664-.813.076-.1.139-.187.186-.252l.001.004 3.289.269c.038.074.088.17.149.281.145.263.349.606.563.944.214.336.438.667.616.91.087.121.166.22.218.29.004.004.007.007.01.012-.138.183-1.215 1.605-1.813 1.762zm5.611-5.386c-.047.183-.117.394-.192.618-.078.222-.163.46-.264.69-.046.118-.102.231-.153.344-.051.113-.108.221-.159.326-.052.108-.11.206-.161.301-.049.097-.102.186-.152.265-.051.08-.092.158-.134.223-.008.012-.015.022-.021.034-.009-.037-.018-.073-.028-.105 0 0-.542.57-2.515.907-.002-.002-.002-.004-.003-.006-.042-.077-.098-.19-.17-.321-.146-.262-.349-.606-.563-.943-.216-.336-.441-.667-.619-.909-.064-.091-.124-.168-.173-.231l.052.004 1.238-3.063c.087-.013.208-.031.349-.057.31-.055.719-.141 1.127-.238.406-.099.811-.209 1.111-.301.084-.024.157-.048.223-.07.363.399 1.223 2.276 1.223 2.276.02-.005.038-.015.058-.022-.021.082-.044.174-.074.278z" fill="#353535"/>
      <g fill="#D8996F">
        <ellipse transform="rotate(24.828 1298.135 57.04)" cx="1298.079" cy="57.017" rx="1.91" ry=".408"/>
        <ellipse transform="rotate(24.824 1297.107 59.14)" cx="1297.078" cy="59.179" rx="1.91" ry=".407"/>
        <path d="M1295.384 58.4305l1.001-2.1626 3.4675 1.6047-1.0008 2.1626z"/>
      </g>
      <ellipse transform="rotate(-146.776 1300.427 53.112)" cx="1300.387" cy="53.089" rx="4.45" ry="5.62" fill="#EAAA7A"/>
      <ellipse transform="rotate(11.507 1296.208 52.234)" cx="1296.41" cy="52.248" rx="1.792" ry="4.071" fill="#212121"/>
      <ellipse transform="rotate(11.958 1298.91 50.36)" cx="1298.625" cy="50.44" rx="1.484" ry="3.369" fill="#2D2D2D"/>
      <ellipse transform="rotate(75.907 1298.35 48.245)" cx="1298.347" cy="48.243" rx="1.793" ry="4.072" fill="#3A3A3A"/>
      <ellipse transform="rotate(104.916 1302.327 48.357)" cx="1302.32" cy="48.355" rx="1.793" ry="5.482" fill="#3A3A3A"/>
      <ellipse transform="rotate(104.916 1300.855 47.422)" cx="1300.865" cy="47.443" rx="1.793" ry="5.482" fill="#2D2D2D"/>
      <ellipse transform="rotate(104.94 1301.863 45.87)" cx="1301.881" cy="45.894" rx="1.182" ry="4.622" fill="#2D2D2D"/>
      <path d="M1300.388 52.618s.847.343 1.492.472-.746.49-.746.49l.085-.321-.831-.641zM1302.905 53.58l1.144.36-.695.562v-.461zM1302.051 54.502l-.567 2.125s-.202.28-.843 0" fill="#5B3B24"/>
      <ellipse cx="1298.708" cy="56.881" rx="1.113" ry=".627" fill="#5B3B24"/>
      <circle cx="1268.715" cy="99.118" r=".547" fill="#262626"/>
      <circle cx="1268.026" cy="97.444" r=".547" fill="#262626"/>
      <circle cx="1267.529" cy="95.783" r=".547" fill="#262626"/>
      <circle cx="1266.933" cy="90.717" r=".547" fill="#262626"/>
      <circle cx="1266.933" cy="88.483" r=".547" fill="#262626"/>
      <ellipse cx="1313.963" cy="113.242" rx=".678" ry=".646" fill="#262626"/>
      <ellipse cx="1316.516" cy="112.11" rx=".678" ry=".646" fill="#262626"/>
      <ellipse transform="rotate(178.854 1290.09 115.168)" cx="1290.094" cy="115.163" rx="32.088" ry="2.989" opacity=".2" fill="#262626"/>
    </g>
    <g>
      <path fill="#D8996F" d="M1382.569 71.871l-5.032 3.64-4.112-5.264 4.668-4.055z"/>
      <g fill="#3F3F3F">
        <circle cx="1380.85" cy="74.791" r="3.39"/>
        <path d="M1383.115 72.271l4.784 5.108-5.839 4.655-4.197-5.639z"/>
      </g>
      <circle cx="1397.497" cy="69.649" r="2.721" fill="#EAAA7A"/>
      <path d="M1383.51 75.531s-1.884 1.124 1.194 2.452 8.215 2.743 8.717.934-7.137-4.822-9.911-3.386z"/>
      <path d="M1392.698 79.677s3.348-5.247 2.971-7.67-9.648 2.122-9.648 2.122l-1.636 3.271 8.313 2.277z" fill="#D8996F"/>
      <g fill="#FF9292">
        <circle cx="1393.979" cy="63.573" r="2.745"/>
        <circle cx="1397.359" cy="68.028" r="2.745"/>
        <path d="M1391.756 65.178l3.712 4.837 4.092-3.627-3.517-4.625z"/>
      </g>
      <circle cx="1375.87" cy="68.356" r="3.095" fill="#D8996F"/>
      <path d="M1384.385 49.936s.006 9.53 5.792 9.282c0 0 2.532-.057 3.244-1.638l-1.659-4.589-3.238-4.73-4.139 1.675z" fill="#EAAA7A"/>
      <ellipse transform="rotate(-15.368 1387.79 48.566)" cx="1387.809" cy="48.555" rx="5.462" ry="2.235" fill="#494949"/>
      <ellipse transform="rotate(-8.66 1388.802 50.938)" cx="1389.187" cy="50.97" rx="1.787" ry="2.778" fill="#494949"/>
      <path d="M1393.893 60.576s8.417 3.181-.472 18.34c0 0-3.184-3.681-9.911-3.386 0 0 6.289-5.276 4.099-14.829-.001.001 3.144-.625 6.284-.125z" fill="#F76161"/>
      <ellipse transform="rotate(-8.66 1392.78 52.157)" cx="1392.602" cy="52.211" rx="2.232" ry="4.613" fill="#494949"/>
      <g fill="#EAAA7A">
        <ellipse cx="1391.438" cy="60.576" rx="2.454" ry=".374"/>
        <ellipse cx="1390.354" cy="58.372" rx="2.454" ry=".374"/>
        <path d="M1392.808 58.372s.93.771 1.085 2.204h-4.908s-.001-.93-1.085-2.204h4.908z"/>
      </g>
      <ellipse transform="rotate(-8.66 1391.695 54.58)" cx="1391.929" cy="54.618" rx="2.586" ry="3.396" fill="#494949"/>
      <ellipse transform="rotate(-8.66 1386.61 46.654)" cx="1386.749" cy="46.834" rx="3.271" ry="1.177" fill="#494949"/>
      <circle cx="1380.466" cy="66.941" r="2.5" fill="#EAAA7A"/>
      <circle cx="1382.324" cy="63.447" r="2.5" fill="#EAAA7A"/>
      <circle cx="1382.967" cy="61.879" r="2.721" fill="#EAAA7A"/>
      <path fill="#EAAA7A" d="M1379.964 62.642l-1.668 3.075 4.273 2.337 2.078-3.864z"/>
      <g fill="#EA5353">
        <circle cx="1387.608" cy="63.447" r="2.745"/>
        <circle cx="1382.569" cy="65.874" r="2.745"/>
        <path d="M1386.478 60.95l-5.479 2.673 2.739 4.733 5.233-2.525z"/>
      </g>
      <ellipse transform="rotate(-11.45 1379.17 89.022)" cx="1378.965" cy="89.023" rx="3.093" ry="3.137" fill="#EAAA7A"/>
      <path d="M1381.912 87.998c2.364 1.054 3.401 6.943 4.104 13.928.155 1.54-3.425 3.092-4.851 2.489.311-5.379-4.944-13.963-4.944-13.963s4.143-2.376 5.691-2.454z" fill="#EAAA7A"/>
      <path d="M1385.312 75.546s7.45.53 7.602 3.783c.109 2.357-6.338 6.276-6.338 6.276l-5-5.322 3.736-4.737z" fill="#494949"/>
      <path fill="#EAAA7A" d="M1381.172 81.023l-4.704 6.152 5.813 1.846 3.265-3.02z"/>
      <path d="M1388.133 82.517c0 2.842-2.748 4.042-3.642 3.641-1.524-.684-3.02-1.606-3.641-3.641-.587-1.923 1.63-3.641 3.641-3.641s3.642 1.63 3.642 3.641z" fill="#494949"/>
      <path d="M1375.198 107.793s-.819.705.257 1.154c0 0 8.473 2.426 12.72-.392 0 0 .319-.939-.535-.959s-12.442.197-12.442.197z" fill="#4C4C4C"/>
      <path d="M1381.165 104.414s-1.435.456-4.133 1.082c-.759.176-2.375.83-1.75 2.58 0 0 8.235 2.153 12.326 0 0 0 .391-4.802-1.593-6.151.001 0-1.217 2.702-4.85 2.489z" fill="#3A3A3A"/>
      <g>
        <path d="M1361.357 82.379s-1.012.174-.354 1.066c0 0 5.726 6.117 10.565 5.893 0 0 .719-.61.032-1.043-.687-.434-10.243-5.916-10.243-5.916z" fill="#4C4C4C"/>
        <path d="M1367.874 82.537s-1.394-.329-3.898-1.135c-.705-.227-2.344-.483-2.688 1.249 0 0 5.665 5.778 10.054 6.02 0 0 2.663-3.726 1.705-5.794-.001-.001-2.314 1.607-5.173-.34z" fill="#3A3A3A"/>
      </g>
      <path d="M1372.804 67.951l-4.447 15.039s2.043 3.552 4.418.953c4.855-9.343 3.693-11.672 3.693-11.672l-3.664-4.32z" fill="#D8996F"/>
      <ellipse cx="1361.552" cy="83.997" rx=".608" ry=".572" fill="#4C4C4C"/>
      <ellipse cx="1362.769" cy="85.142" rx=".608" ry=".572" fill="#4C4C4C"/>
      <ellipse cx="1363.985" cy="86.232" rx=".608" ry=".572" fill="#4C4C4C"/>
      <ellipse cx="1367.748" cy="88.771" rx=".608" ry=".572" fill="#4C4C4C"/>
      <ellipse cx="1369.489" cy="89.344" rx=".608" ry=".572" fill="#4C4C4C"/>
      <ellipse cx="1376.589" cy="109.227" rx=".567" ry=".472" fill="#4C4C4C"/>
      <ellipse cx="1377.863" cy="109.699" rx=".567" ry=".472" fill="#4C4C4C"/>
      <ellipse cx="1379.532" cy="109.699" rx=".567" ry=".472" fill="#4C4C4C"/>
      <ellipse cx="1385.01" cy="109.918" rx=".567" ry=".472" fill="#4C4C4C"/>
      <ellipse cx="1386.678" cy="109.446" rx=".567" ry=".472" fill="#4C4C4C"/>
      <path fill="#9E6944" d="M1384.824 53.583l1.287.146-1.126.502zM1386.074 56.874l.232.351.795-.703z"/>
      <ellipse cx="1365.451" cy="112.213" rx="20.236" ry="1.822" opacity=".2"/>
    </g>
    <g>
      <path d="M1480.77 49.536l1.646-3.629 8.163 1.814-1.081 2.428s-4.117 2.839-8.728-.613z" fill="#CE9167"/>
      <path d="M1479.741 49.386s-.413.565.414 1.271 8.057 1.668 9.343.345c1.287-1.323-9.198-2.493-9.757-1.616z"/>
      <path d="M1477.688 56.442s-.752 2.43-1.421 2.955c-1.61.754-6.236 15.109-6.236 15.109-.043.188.542 2.836 1.987 2.836 1.225 0 2.246-.846 2.529-1.982l.006.001s3.858-9.668 6.971-13.375c.891-.555 2.208-4.029 2.208-4.029l-6.044-1.515z" fill="#EAAA7A"/>
      <path d="M1480.77 49.536s3.666 1.802 7.902.815l-4.687 8.625-7.349-1.893 4.134-7.547z" fill="#494949"/>
      <ellipse transform="rotate(12.51 1480.097 58.033)" cx="1480.298" cy="58.056" rx="3.809" ry="1.422" fill="#494949"/>
      <g>
        <path d="M1467.89 76.343s-1.118.744-.666 1.145c1.343 1.189 3.891 4.109 7.727 4.526 0 0 5.521.955 3.887-1.127-1.637-2.084-3.504 1.71-10.948-4.544z" fill="#5B5B5B"/>
        <path d="M1470.496 73.09s-.141 1.088 1.294 2.543c1.162 1.552 2.892.413 2.777-.339-.058-.505 1.381 3.888 1.381 3.888s2.632-.682 2.924 1.949h-3.606s-2.51.217-7.28-4.552c-.001 0-.237-1.897 2.51-3.489z" fill="#494949"/>
      </g>
      <path fill="#3F3F3F" d="M1489.498 50.149v.853l4.68 3.253-3.599 4.721-5.342-2.305 3.435-6.32z"/>
      <ellipse transform="rotate(-51.757 1492.404 56.562)" cx="1492.378" cy="56.587" rx="2.968" ry="1.033" fill="#3F3F3F"/>
      <ellipse transform="rotate(-51.757 1492.076 56.47)" cx="1492.17" cy="56.442" rx="2.661" ry=".926" fill="#EAAA7A"/>
      <circle cx="1496.195" cy="59.004" r="2.627" fill="#EAAA7A"/>
      <circle cx="1491.233" cy="71.5" r="2.334" fill="#EAAA7A"/>
      <path d="M1493.817 54.352l3.72 2.397 1.196 2.923-5.37 12.781-4.046-2.282s2.48-8.88 4.25-10.026l-3.045-1.613 3.295-4.18z" fill="#EAAA7A"/>
      <g>
        <path d="M1487.158 74.085s-1.268 1.117-.119 2.027c0 0 6.57 2.745 10.998 2.042 0 0 1.149-.326.861-1.336-.293-1.027-11.74-2.733-11.74-2.733z" fill="#707070"/>
        <path d="M1489.331 71.045s-.014 1.75 2.165 2.044c0 0 1.086 0 2.071-.406 0 0 2.87 1.996 4.397 2.381s1.172 2.586-.076 2.504c0 0-6.054.246-10.295-2.037 0 0-1.059-.326 0-2.934 1.061-2.606 1.518-3.106 1.738-1.552z" fill="#4C4C4C"/>
      </g>
      <g>
        <path d="M1498.668 39.181l1.378 1.133 9.306-.952.526 2.837s-8.44 1.973-10.454 1.703c-1.087-.146-3.667-2.406-3.667-2.406l2.911-2.315z" fill="#CE9167"/>
        <g fill="#494949">
          <circle cx="1493.617" cy="38.036" r="2.139"/>
          <circle cx="1496.854" cy="40.314" r="2.139"/>
          <path d="M1494.591 36.134l3.436 2.394-2.409 3.532-3.374-2.386z"/>
        </g>
        <ellipse cx="1509.878" cy="39.762" rx="2.648" ry="2.421" fill="#E2A074"/>
      </g>
      <ellipse transform="rotate(6.142 1488.81 34.81)" cx="1489.248" cy="34.84" rx="2.059" ry=".364" fill="#CE9167"/>
      <path d="M1487.201 34.62s.375-.263.323-1.405l2.606.208s.073.748-.187 1.36c-.258.613-2.742-.163-2.742-.163z" fill="#CE9167"/>
      <path fill="#E2A074" d="M1494.178 44.428l4.593-.635-1.842-3.186-1.636-.183z"/>
      <path d="M1484.32 36.273c-1.857 2.607.366 5.509-4.579 13.113.813-.675 3.767 2.877 9.757 1.616 0 0 6.696-11.179 4.295-15.229-1.414-.76-7.472-2.311-9.473.5z" fill="#232323"/>
      <g>
        <path d="M1485.112 29.062s-.072 4.379 4.023 4.734c3.384.293 4.191-4.381 4.191-4.381l-.473-3.504-4.76-1.217-3.034 1.832c.002-.002-.582 1.599.053 2.536z" fill="#EAAA7A"/>
        <path d="M1485.012 28.545c0-2.307 1.815-2.971 4.052-2.971 2.238 0 4.054.664 4.054 2.971 0 .443.334.468.21.869.545-.751.466-1.267.466-2.261 0-1.9-1.327-4.708-3.091-3.875-.516.244-.924.489-1.567.49-2.573 0-4.659.85-4.659 3.385 0 .844.234 1.23.637 1.909-.065-.296-.102-.201-.102-.517z" fill="#494949"/>
        <path d="M1485.061 23.309c.667.671 1.693 1.187 2.896 1.368 1.204.182 2.337-.007 3.173-.45-.668-.672-1.694-1.187-2.897-1.369-1.205-.182-2.337.007-3.172.451z" fill="#494949"/>
        <path d="M1483.652 23.115c1.164-.406 2.757-.67 4.206-.285 1.456.369 2.411 1.138 3.106 1.81-.046-.881-.833-2.26-2.583-2.798-1.732-.566-3.735.13-4.729 1.273z" fill="#494949"/>
        <path d="M1483.651 24.685c.961.511 2.315.793 3.805.709 1.488-.083 2.805-.512 3.703-1.126-.961-.512-2.316-.793-3.805-.71-1.489.083-2.803.512-3.703 1.127z" fill="#494949"/>
        <path d="M1485.608 26.914c.766.164 1.758.09 2.771-.263 1.011-.353 1.833-.913 2.332-1.517-.767-.164-1.759-.09-2.771.263s-1.835.913-2.332 1.517z" fill="#494949"/>
      </g>
      <ellipse cx="1499.433" cy="41.418" rx="2.648" ry="2.421" fill="#E2A074"/>
      <g fill="#EAAA7A">
        <circle cx="1493.974" cy="42.207" r="2.221"/>
        <path d="M1492.579 38.665l2.714 1.759-2.355 3.748-2.699-1.964z"/>
      </g>
      <g fill="#161616">
        <circle cx="1487.085" cy="37.514" r="2.31"/>
        <circle cx="1490.579" cy="39.972" r="2.31"/>
        <path d="M1488.136 35.459l3.711 2.585-2.602 3.814-3.643-2.577z"/>
      </g>
      <path d="M1486.376 29.048s.91-.546 2.131-.104c0 0-.363.499-.909.47 0 0 .052-.25.233-.321s-1.195.085-1.455-.045zM1489.514 29.048s.91-.546 2.131-.104c0 0-.363.499-.909.47 0 0 .052-.25.233-.321s-1.196.085-1.455-.045z" fill="#825537"/>
      <ellipse cx="1489.033" cy="30.854" rx=".362" ry=".065" fill="#825537"/>
      <ellipse cx="1489.849" cy="32.495" rx=".817" ry=".72" fill="#825537"/>
      <circle cx="1477.337" cy="82.231" r=".584" fill="#5B5B5B"/>
      <circle cx="1475.291" cy="82.232" r=".584" fill="#5B5B5B"/>
      <ellipse cx="1476.768" cy="83.08" rx="18.368" ry="1.688" opacity=".2" fill="#494949"/>
      <circle cx="1473.128" cy="81.647" r=".584" fill="#5B5B5B"/>
      <circle cx="1469.444" cy="79.602" r=".584" fill="#5B5B5B"/>
      <circle cx="1467.98" cy="78.434" r=".584" fill="#5B5B5B"/>
      <circle cx="1487.341" cy="76.361" r=".584" fill="#707070"/>
      <circle cx="1489.214" cy="76.927" r=".584" fill="#707070"/>
      <circle cx="1494.025" cy="78.095" r=".584" fill="#707070"/>
      <circle cx="1495.671" cy="78.269" r=".584" fill="#707070"/>
      <circle cx="1497.362" cy="78.287" r=".584" fill="#707070"/>
    </g>
    <g>
      <g fill="#AFAFAF">
        <path d="M987.44 119.531V62.907h-.058c-.271-1.482-1.563-2.607-3.123-2.607s-2.853 1.125-3.123 2.607h-.058v58.016M951.461 86.233c-.271-1.482-1.563-2.607-3.123-2.607s-2.853 1.125-3.123 2.607h-.058v61.547h.058c-.034.187-.058.377-.058.573 0 1.757 1.424 3.181 3.181 3.181s3.181-1.424 3.181-3.181c0-.196-.023-.387-.058-.573h.058V86.233h-.058z"/>
        <path d="M946.386 84.308l36.35-23.595 4.745 4.495-35.962 23.374z"/>
      </g>
      <g>
        <path d="M983.557 63.703c-5.378-1.239-10.97 1.388-16.123 2.606-3.83.905-7.955 1.058-11.868 1.406-4.007.356-8.023.596-12.044.731-.643.021-.646 1.022 0 1 7.432-.25 14.839-.903 22.218-1.814 5.785-.714 11.618-4.332 17.552-2.965.627.145.894-.819.265-.964z" fill="#AFAFAF"/>
      </g>
      <g>
        <path d="M948.735 84.543c-2.504.12-4.742 1.049-7.093 1.836-2.823.945-5.816 1.321-8.754 1.724-6.457.888-12.778 1.2-19.295 1.201-.645 0-.645 1 0 1 5.959-.001 11.883-.075 17.782-.985 2.979-.459 5.96-.79 8.895-1.507 2.862-.701 5.478-2.126 8.465-2.269.642-.03.645-1.03 0-1z" fill="#AFAFAF"/>
      </g>
      <g>
        <path d="M913.389 89.779c-1.381 1.796-1.837 4.186-2.332 6.345-.69 3.01-1.459 6-2.217 8.993-1.912 7.558-4.233 14.846-8.061 21.676-3.538 6.314-7.898 12.139-12.501 17.708-2.229 2.695-4.543 5.319-6.874 7.925-1.171 1.309-2.352 2.608-3.532 3.908-.704.775-1.659 1.375-2.196 2.29-.114.195-.08.447.078.606.025.026.051.052.077.078.454.459 1.161-.249.707-.707.623.629 11.865-12.689 13.002-14.065 4.481-5.42 8.604-11.133 12.102-17.238 3.473-6.059 5.692-12.583 7.487-19.307.868-3.25 1.697-6.518 2.482-9.79.631-2.631.945-5.715 2.64-7.918.395-.511-.476-1.008-.862-.504z" fill="#AFAFAF"/>
      </g>
      <g>
        <path d="M943.039 69.267c-.902 2.482-.852 5.189-1.024 7.792-.232 3.511-1.3 7.009-2.311 10.362-2.07 6.875-5.282 13.276-8.315 19.758-5.975 12.77-12.373 26.478-23.59 35.551-.502.406.211 1.108.707.707 11.053-8.939 17.484-22.397 23.385-34.981 2.952-6.295 6.037-12.506 8.251-19.111 1.161-3.465 2.209-7.093 2.72-10.717.427-3.028.081-6.177 1.143-9.095.22-.608-.747-.867-.966-.266z" fill="#AFAFAF"/>
      </g>
      <g>
        <path d="M942.815 69.195c-6.492 3.051-10.996 8.972-17.012 12.759-4.434 2.792-10.353 4.581-13.321 9.185-.351.544.516 1.044.863.505 3.021-4.684 9.564-6.66 14.098-9.545 5.638-3.589 9.746-9.16 15.876-12.041.584-.274.076-1.136-.504-.863z" fill="#AFAFAF"/>
      </g>
      <g>
        <path d="M970.142 69.825c-8.563 2.969-17.469 2.939-26.394 2.249-.731-.057-8.185-.547-6.249 1.534.44.473 1.146-.235.707-.707.45.483 3.696.11 4.681.147 2.837.108 5.661.403 8.502.472 6.424.153 12.936-.621 19.019-2.731.605-.21.344-1.176-.266-.964z" fill="#AFAFAF"/>
      </g>
      <g>
        <path d="M962.565 75.701c-6.454.341-12.785 1.961-19.221.621-2.061-.429-4.116-.943-6.205-1.217-1.011-.133-2.408-.441-3.268.289-.492.418.219 1.122.707.707.962-.818 4.065.257 5.126.469 1.904.381 3.793.849 5.711 1.161 5.636.917 11.519-.733 17.149-1.031.643-.033.646-1.033.001-.999z" fill="#AFAFAF"/>
      </g>
      <g>
        <path d="M959.618 78.422c-5.634-.117-11.138 1.465-16.777 1.134-5.271-.31-10.586.273-15.776 1.152-.635.107-.365 1.071.266.964 5.446-.921 10.932-1.385 16.453-1.061 5.299.311 10.527-1.299 15.835-1.189.645.014.643-.987-.001-1z" fill="#AFAFAF"/>
      </g>
      <g>
        <path d="M956.671 81.143c-7.912.615-15.783 1.441-23.71 1.895-2.979.17-5.963.361-8.923.748-1.024.134-3.236.167-3.848 1.233-.321.561.543 1.064.863.505.618-1.077 4.904-.965 5.938-1.062 2.641-.246 5.29-.389 7.937-.533 7.271-.396 14.486-1.221 21.743-1.785.639-.051.643-1.051 0-1.001z" fill="#AFAFAF"/>
      </g>
      <g>
        <path d="M922.757 84.108c-3.83.536-5.544 4.778-6.638 7.988-1.564 4.593-2.063 9.438-3.209 14.133-1.935 7.938-5.782 15.773-9.531 22.988-3.74 7.196-7.57 15.132-13.264 20.996-.449.462.257 1.17.707.707 5.006-5.155 8.155-11.722 11.645-17.918 4.123-7.321 7.503-15.052 10.274-22.979 1.532-4.381 2.132-8.921 3.172-13.43.885-3.835 2.341-10.853 7.109-11.52.637-.09.365-1.053-.265-.965z" fill="#AFAFAF"/>
      </g>
      <g>
        <path d="M876.317 159.664c1.458-.275 2.791-1.695 3.888-2.615 2.431-2.04 5.399-3.453 8.23-4.854 6.539-3.233 13.359-5.803 20.076-8.629.585-.246.328-1.214-.266-.964-5.94 2.499-11.978 4.768-17.804 7.532-3.056 1.45-6.063 2.954-8.955 4.714-1.765 1.074-3.377 3.462-5.436 3.852-.632.119-.362 1.083.267.964z" fill="#AFAFAF"/>
      </g>
      <g>
        <path d="M927.172 81.665c-3.592 2.595-5.261 6.849-6.513 10.948-1.5 4.909-2.349 10-3.733 14.944-2.021 7.211-4.764 14.201-7.736 21.066-2.776 6.409-5.598 12.871-10.232 18.188-.422.484.283 1.194.707.707 4.102-4.706 6.769-10.24 9.292-15.897 2.833-6.353 5.449-12.799 7.604-19.415 1.659-5.095 2.805-10.272 4.039-15.477 1.185-4.99 2.688-11.031 7.076-14.202.517-.373.019-1.241-.504-.862z" fill="#AFAFAF"/>
      </g>
      <g>
        <path d="M934.881 75.77c-1.466.758-2.234 2.488-2.927 3.895-1.079 2.196-2.001 4.478-2.796 6.789-2.443 7.106-4.848 14.039-7.843 20.947-2.75 6.346-5.594 12.661-8.058 19.125-2.354 6.178-4.023 12.426-8.406 17.564-.416.487.288 1.198.707.707 3.554-4.167 5.495-9.002 7.273-14.116 2.388-6.862 5.311-13.512 8.212-20.168 2.652-6.085 5.368-12.144 7.379-18.477.974-3.068 1.876-6.155 3.167-9.109.854-1.954 1.773-5.25 3.795-6.295.574-.296.068-1.158-.503-.862z" fill="#AFAFAF"/>
      </g>
      <g>
        <path d="M937.598 72.895c-.531 3.476-1.948 6.695-2.95 10.045-1.145 3.826-1.451 7.861-2.48 11.72-2.059 7.715-6.771 14.737-10.687 21.603-2.725 4.777-4.894 9.635-6.985 14.704-1.974 4.784-4.361 11.084-9.315 13.5-.58.283-.073 1.145.504.863 4.451-2.17 6.794-7.301 8.704-11.583 2.447-5.485 4.568-10.946 7.518-16.204 3.829-6.827 7.876-13.453 10.65-20.803 1.422-3.765 1.773-7.877 2.616-11.79.865-4.014 2.768-7.713 3.391-11.79.094-.63-.869-.901-.966-.265z" fill="#AFAFAF"/>
      </g>
      <g>
        <path d="M964.927 66.65c-5.369 1.728-9.413 5.86-13.841 9.156-5.304 3.948-10.469 7.859-15.4 12.285-.48.432.229 1.136.707.707 4.646-4.17 9.42-8.153 14.576-11.683 4.712-3.226 8.654-7.708 14.224-9.501.611-.196.349-1.162-.266-.964z" fill="#AFAFAF"/>
      </g>
      <g>
        <path d="M950.223 69.273c-2.258-2.24-7.815 6.438-8.884 7.788-2.543 3.215-6.406 4.94-9.926 6.855-1.544.84-2.975 1.79-4.383 2.837-.784.584-2.648 2.563-3.688 2.552-.646-.007-.645.993 0 1 1.758.02 4.202-2.713 5.542-3.678 3.064-2.205 6.645-3.588 9.763-5.72 2.098-1.434 3.512-3.286 5.056-5.251.463-.589 4.955-6.526 5.813-5.675.458.454 1.165-.253.707-.708z" fill="#AFAFAF"/>
      </g>
      <g>
        <path d="M911.68 98.547c2.637-2.64 6.006-4.178 9.351-5.717 2.932-1.348 5.568-2.995 8.357-4.58 4.18-2.375 10.484-3.639 13.205-7.942.346-.547-.52-1.048-.863-.505-1.431 2.262-4.271 3.463-6.595 4.582-2.545 1.225-5.209 2.26-7.583 3.81-5.336 3.482-12 5.061-16.579 9.645-.456.456.251 1.163.707.707z" fill="#AFAFAF"/>
      </g>
      <g>
        <path d="M910.171 105.021c3.301-4.525 10.1-5.425 14.8-7.954 3.058-1.645 6.204-3.303 9.091-5.233 2.845-1.903 4.177-5.098 7.552-6.308.603-.216.343-1.182-.266-.964-2.774.994-4.24 2.959-6.193 5.042-2.773 2.958-7.229 4.58-10.688 6.599-4.863 2.84-11.642 3.49-15.158 8.313-.382.522.486 1.02.862.505z" fill="#AFAFAF"/>
      </g>
      <g>
        <path d="M908.506 110.563c4.143-3.92 9.982-5.423 15-7.912 5.435-2.696 10.715-5.881 15.381-9.772.496-.414-.216-1.117-.707-.707-4.824 4.023-10.318 7.206-15.932 9.99-4.888 2.424-10.4 3.863-14.449 7.694-.469.444.239 1.15.707.707z" fill="#AFAFAF"/>
      </g>
      <g>
        <path d="M907.951 114.269c4.341-3.29 9.802-4.154 14.816-5.966 5.053-1.826 8.893-5.395 13.297-8.317.535-.354.035-1.221-.504-.863-4.593 3.047-8.503 6.57-13.772 8.474-4.891 1.767-10.103 2.597-14.341 5.809-.508.384-.009 1.252.504.863z" fill="#AFAFAF"/>
      </g>
      <g>
        <path d="M906.09 119.304c1.839-3.555 7.343-3.833 10.798-4.713 5.106-1.303 9.757-4.315 14.416-6.67.576-.291.069-1.153-.504-.863-5.134 2.595-10.111 5.659-15.773 6.953-3.364.769-8.03 1.37-9.8 4.79-.296.57.567 1.076.863.503z" fill="#AFAFAF"/>
      </g>
      <g>
        <path d="M902.838 124.62c7.568-6.174 19.256-4.143 26.3-11.336.451-.461-.255-1.168-.707-.707-6.989 7.137-18.722 5.154-26.3 11.336-.5.407.212 1.11.707.707z" fill="#AFAFAF"/>
      </g>
      <g>
        <path d="M900.571 129.381c1.852-1.496 4.478-1.944 6.749-2.401 2.995-.604 6.026-1.003 9.022-1.604 3.767-.754 9.465-1.978 10.431-6.418.137-.628-.827-.896-.965-.266-1.075 4.942-8.944 5.623-12.945 6.313-4.163.717-9.566.896-12.999 3.669-.502.405.21 1.108.707.707z" fill="#AFAFAF"/>
      </g>
      <g>
        <path d="M898.53 133.462c2.617-2.864 8.61-2.754 12.13-3.189 3.782-.468 8.039-.787 11.348-2.854.546-.341.044-1.206-.504-.863-3.971 2.48-9.406 2.522-13.913 3.1-3.103.398-7.495.612-9.768 3.1-.434.474.272 1.183.707.706z" fill="#AFAFAF"/>
      </g>
      <g>
        <path d="M894.455 138.578c8.04-2.853 16.934-2.401 24.605-6.398.572-.298.066-1.161-.504-.863-7.583 3.951-16.416 3.476-24.367 6.298-.604.213-.344 1.179.266.963z" fill="#AFAFAF"/>
      </g>
      <g>
        <path d="M889.461 145.251c6.015-7.117 17.676-3.864 25.064-8.764.535-.354.035-1.221-.504-.863-7.492 4.968-19.105 1.628-25.268 8.92-.413.489.291 1.2.708.707z" fill="#AFAFAF"/>
      </g>
      <g>
        <path d="M883.566 151.826c4.103-4.601 11.191-5.925 16.725-8.055 4.897-1.885 11.561-2.088 15.243-6.229.427-.48-.277-1.19-.707-.707-2.088 2.347-5.24 3.169-8.17 3.953-2.842.76-5.549 1.64-8.31 2.646-5.208 1.897-11.654 3.385-15.488 7.685-.427.48.277 1.19.707.707z" fill="#AFAFAF"/>
      </g>
      <g>
        <path d="M876.664 159.839c5.561-3.226 11.733-4.532 18.001-5.603 3.156-.54 6.334-.999 9.44-1.791 3.026-.771 5.947-1.92 8.946-2.789 6.678-1.934 14.064-1.12 20.902-.571 3.075.247 6.018.518 8.91 1.615 1.59.603 3.366 1.45 5.098 1.028.627-.152.36-1.117-.266-.964-2.157.525-4.877-1.233-6.902-1.842-2.73-.821-5.924-.771-8.744-.985-6.414-.487-12.994-.935-19.264.756-3.017.813-5.935 1.956-8.946 2.789-3.079.851-6.295 1.26-9.44 1.791-6.352 1.071-12.615 2.441-18.24 5.704-.557.322-.055 1.187.505.862z" fill="#AFAFAF"/>
      </g>
      <g>
        <path d="M977.551 68.24c-4.221 7.48-1.691 17.002-1.166 25.064.648 9.939-1.582 21.484-6.77 30.029-.336.553.529 1.055.863.505 4.85-7.987 6.664-17.861 6.985-27.105.314-9.029-3.795-19.578.95-27.988.318-.562-.546-1.066-.862-.505z" fill="#AFAFAF"/>
      </g>
      <g>
        <path d="M971.832 73.348c-1.48 9.021-1.411 18.228-3.204 27.204-.914 4.573-2.407 9.004-3.226 13.605-.334 1.876-.532 3.761-.942 5.625-.31 1.405-1.098 5.571-2.802 5.571-.645 0-.645 1 0 1 1.447 0 1.401-.272 2.134-1.647.899-1.69 1.396-3.586 1.806-5.444 1.088-4.944 1.808-9.897 3.098-14.815 2.651-10.109 2.417-20.571 4.102-30.834.102-.63-.861-.901-.966-.265z" fill="#AFAFAF"/>
      </g>
      <g>
        <path d="M967.199 74.941c-2.455 2.348-3.271 5.749-3.915 8.97-.855 4.271-1.611 8.563-2.373 12.852-.903 5.083-1.419 10.139-1.702 15.291-.153 2.786-.462 5.53-1.207 8.225-.301 1.09-.608 2.17-.957 3.247-.337 1.042-.631 2.781-1.253 3.672h.863c-.077-.154-.155-.309-.233-.464-.29-.576-1.152-.069-.863.505.078.154.155.309.233.464.182.361.664.285.863 0 .831-1.19 1.17-3.342 1.621-4.737.654-2.021 1.223-4.117 1.501-6.226.74-5.619.733-11.276 1.619-16.89.687-4.356 1.604-8.667 2.37-13.006.678-3.834 1.182-8.366 4.14-11.196.467-.446-.241-1.153-.707-.707z" fill="#AFAFAF"/>
      </g>
      <g>
        <path d="M962.767 67.834c-3.233 2.128-3.947 6.792-4.732 10.276-1.415 6.276-3.521 12.464-5.383 18.622-1.97 6.515-4.188 13.002-6.536 19.39-2.112 5.745-4.505 11.055-8.014 16.053-.371.529.496 1.028.863.505 6.726-9.582 9.83-21.138 13.511-32.139 2.12-6.336 3.876-12.799 5.766-19.207 1.151-3.905 1.311-10.189 5.029-12.637.536-.352.036-1.218-.504-.863z" fill="#AFAFAF"/>
      </g>
      <g>
        <path d="M951.556 69.272c-3.409 3.717-3.498 9.129-4.437 13.824-1.529 7.655-3.257 14.913-6.641 21.989-3.114 6.513-6.788 12.743-10.154 19.126-1.025 1.944-1.815 3.951-2.699 5.96-.733 1.667-2.082 5.323-4.282 5.384-.644.018-.646 1.018 0 1 3.4-.093 5.023-5.526 6.065-8.038 2.596-6.257 6.328-12.07 9.479-18.06 3.517-6.686 6.249-13.288 7.847-20.688.748-3.467 1.477-6.933 2.045-10.434.534-3.289 1.156-6.819 3.483-9.357.435-.473-.27-1.182-.706-.706z" fill="#AFAFAF"/>
      </g>
      <g>
        <path d="M940.526 87.764c-.243 5.725-.313 11.457-.685 17.176-.408 6.289-1.813 12.284-2.863 18.467-.736 4.333-.705 8.655-.771 13.029-.033 2.237-.188 4.47-.582 6.673-.162.898-1.315 5.384-2.4 5.16-.629-.13-.897.833-.266.964.955.198 1.193.099 1.588-.792.883-1.991 1.761-3.501 2.16-5.725.875-4.875.324-9.892.704-14.808.5-6.465 2.432-12.724 3.113-19.177.735-6.96.705-13.983 1.002-20.969.028-.643-.972-.64-1 .002z" fill="#AFAFAF"/>
      </g>
      <g>
        <path d="M934.196 88.991c-1.576 4.698-1.314 9.715-1.469 14.601-.199 6.273-.717 12.66-1.561 18.878-.75 5.522-1.96 10.804-3.909 16.031-.575 1.544-1.051 3.101-1.529 4.679-.398 1.316-.872 4.2-2.185 4.913.25.144.501.288.752.432v-.454c0-.645-1-.645-1 0v.454c0 .388.422.611.752.432 2.08-1.13 2.665-5.572 3.267-7.583 1.508-5.042 3.405-9.787 4.299-15.017 1.1-6.438 1.438-12.968 1.904-19.472.419-5.832-.241-12.011 1.644-17.627.205-.614-.761-.875-.965-.267z" fill="#AFAFAF"/>
      </g>
      <g>
        <path d="M927.898 89.552c-2.35 3.518-2.31 8.334-2.451 12.403-.224 6.468-.047 13.026-1.059 19.434-1.011 6.408-4.094 11.935-6.29 17.935-.579 1.583-1.104 3.187-1.681 4.771-.432 1.188-1.113 4.335-2.396 4.906.25.144.501.288.752.432v-.227c0-.645-1-.645-1 0v.227c0 .411.417.581.752.432.954-.424 1.408-1.915 1.785-2.776.759-1.736 1.373-3.537 1.994-5.326 1.946-5.614 4.704-10.847 6.283-16.613 1.715-6.262 1.527-12.826 1.716-19.257.146-5.005-.438-11.499 2.458-15.835.36-.539-.506-1.039-.863-.506z" fill="#AFAFAF"/>
      </g>
      <g>
        <path d="M919.361 89.678c-2.303 2.925-2.82 6.992-3.285 10.571-.687 5.277-.968 10.626-1.503 15.922-.685 6.771-2.115 13.398-3.902 19.958-.167.611-4.553 14.258-4.987 14.005-.559-.325-1.062.54-.504.863 1.954 1.137 3.333-4.688 3.682-5.74 2.251-6.795 4.209-13.664 5.561-20.7 1.229-6.399 1.819-13.098 2.222-19.596.283-4.591.449-10.797 3.425-14.577.393-.5-.31-1.213-.709-.706z" fill="#AFAFAF"/>
      </g>
      <g>
        <path d="M917.321 89.904c-7.749 9.923-3.647 24.161-6.478 35.589-1.661 6.709-4.563 12.47-8.688 17.969-1.551 2.068-3.15 4.101-4.84 6.057-.957 1.106-2.939 3.919-4.581 3.947l.5.5v-.68c0-.645-1-.645-1 0v.68c0 .269.228.505.5.5 1.269-.022 2.367-1.208 3.213-2.018 1.922-1.84 3.583-3.974 5.221-6.063 3.652-4.661 6.877-9.394 8.96-14.992 2.399-6.449 2.826-13.004 3.067-19.809.249-7.04.288-15.154 4.832-20.973.393-.502-.309-1.215-.706-.707z" fill="#AFAFAF"/>
      </g>
      <g>
        <path d="M968.333 66.779c-2.683 3.319-7.036 5.199-8.744 9.29-.248.595.72.852.965.266 1.61-3.857 5.948-5.707 8.486-8.848.401-.498-.302-1.21-.707-.708z" fill="#AFAFAF"/>
      </g>
      <g>
        <path d="M981.256 73.581c-5.787 5.341-13.698 6.759-20.864 9.394-7.373 2.71-13.794 7.915-21.858 8.598-.638.054-.643 1.054 0 1 7.814-.662 14.578-5.308 21.581-8.403 7.45-3.292 15.629-4.14 21.849-9.881.474-.439-.235-1.145-.708-.708z" fill="#AFAFAF"/>
      </g>
      <g>
        <path d="M981.023 78.893c-7.908 2.315-14.977 7.015-22.524 10.255-8.285 3.556-16.792 6.656-24.979 10.427-.586.27-.077 1.131.504.863 7.899-3.638 16.11-6.663 24.118-10.062 3.967-1.683 7.947-3.414 11.714-5.514 3.639-2.028 7.43-3.833 11.434-5.006.616-.18.354-1.145-.267-.963z" fill="#AFAFAF"/>
      </g>
      <g>
        <path d="M980.35 82.876c-9.721 9.676-24.717 10.196-36.628 15.792-.584.274-.076 1.136.504.863 12.021-5.648 27.005-6.167 36.831-15.949.457-.454-.25-1.161-.707-.706z" fill="#AFAFAF"/>
      </g>
      <g>
        <path d="M980.35 89.678c-4.41 3.556-10.572 4.871-15.68 7.151-6.485 2.895-12.89 6.11-19.922 7.458-.633.121-.364 1.085.266.964 7.072-1.354 13.676-4.54 20.161-7.558 5.182-2.411 11.361-3.662 15.882-7.307.502-.406-.21-1.109-.707-.708z" fill="#AFAFAF"/>
      </g>
      <g>
        <path d="M981.357 93.907c-9.914 4.536-19.312 10.597-30.034 13.1-.628.146-.361 1.11.266.964 10.808-2.521 20.282-8.629 30.272-13.2.586-.269.077-1.13-.504-.864z" fill="#AFAFAF"/>
      </g>
      <g>
        <path d="M981.931 98.845c-6.035 2.004-12.309 4.942-17.669 8.366-4.368 2.791-8.98 7.651-14.299 8.412-.637.091-.365 1.054.266.964 4.776-.683 9.044-4.722 12.857-7.38 2.392-1.667 4.896-2.935 7.5-4.236 3.795-1.896 7.574-3.821 11.61-5.162.61-.203.348-1.168-.265-.964z" fill="#AFAFAF"/>
      </g>
      <g>
        <path d="M980.225 105.243c-8.933 6.705-20.05 8.856-30.154 13.15-.592.251-.082 1.112.504.863 10.113-4.296 21.212-6.437 30.154-13.15.509-.381.011-1.251-.504-.863z" fill="#AFAFAF"/>
      </g>
      <g>
        <path d="M980.904 112.499c-8.265 6.095-19.365 8.66-29.448 9.454-.639.05-.644 1.051 0 1 10.26-.808 21.537-3.384 29.952-9.59.514-.38.016-1.248-.504-.864z" fill="#AFAFAF"/>
      </g>
      <g>
        <path d="M912.053 95.926c.031-.48 12.996.968 14.252 1.116 1.937.228 3.865.489 5.815.539 4.621.117 9.228-1.557 13.239-3.717.568-.306.063-1.169-.504-.863-4.354 2.344-9.265 3.923-14.262 3.519-2.578-.208-5.146-.584-7.715-.873-1.353-.152-11.671-2.07-11.826.28-.041.643.959.639 1.001-.001z" fill="#AFAFAF"/>
      </g>
      <g>
        <path d="M910.192 103.001c7.095.019 14.18.261 21.275.117 3.911-.079 7.853-.205 11.729-.767 1.082-.157 4.286-.438 4.226-2.118-.023-.643-1.023-.645-1 0 .107 2.993-32.568 1.777-36.229 1.768-.645-.002-.645.998-.001 1z" fill="#AFAFAF"/>
      </g>
      <g>
        <path d="M908.379 110.029c6.893.094 13.488-2.56 20.404-2.041 5.757.433 10.609 2.455 15.896-.975.539-.35.038-1.215-.504-.863-5.547 3.598-11.202.943-17.216.739-6.27-.213-12.304 2.226-18.581 2.14-.645-.008-.644.992.001 1z" fill="#AFAFAF"/>
      </g>
      <g>
        <path d="M906.471 117.493c7.835-2.355 15.846-4.278 24.084-3.554 5.659.497 12.295 1.752 17.299-1.711.526-.364.027-1.231-.504-.863-5.249 3.632-12.437 1.881-18.35 1.452-7.714-.56-15.48 1.513-22.795 3.712-.616.185-.353 1.151.266.964z" fill="#AFAFAF"/>
      </g>
      <g>
        <path d="M903.416 124.924c4.227-2.005 8.823-2.561 13.432-2.983 3.815-.35 7.695-1.101 11.518-1.191 5.271-.125 12.577 1.501 17.221-1.721.526-.365.027-1.232-.504-.863-2.555 1.772-6.09 1.674-9.071 1.688-3.237.015-6.489-.278-9.721.003-3.978.346-7.98.914-11.96 1.329-3.943.411-7.818 1.166-11.418 2.874-.584.277-.076 1.139.503.864z" fill="#AFAFAF"/>
      </g>
      <g>
        <path d="M900.016 130.592c7.862-3.423 16.595-3.124 24.994-3.354 7.04-.192 14.229.426 20.576-3.221.56-.321.056-1.185-.504-.863-6.987 4.014-15.632 2.998-23.386 3.166-7.536.164-15.165.353-22.186 3.409-.589.257-.079 1.118.506.863z" fill="#AFAFAF"/>
      </g>
      <g>
        <path d="M895.935 136.714c9.837-4.419 21.293-4.876 31.939-4.982 4.012-.04 8.025-.096 12.01-.606 2.88-.368 6.006-.978 8.298-2.878.497-.412-.215-1.115-.707-.707-2.854 2.365-7.288 2.636-10.813 2.915-3.768.298-7.551.233-11.326.313-10.032.212-20.65.925-29.906 5.083-.587.262-.078 1.124.505.862z" fill="#AFAFAF"/>
      </g>
      <g>
        <path d="M891.054 142.659c11.57-2.28 22.94-4.786 34.794-4.779 6.97.004 17.108.916 22.56-4.418.462-.452-.246-1.158-.707-.707-2.975 2.91-7.604 3.488-11.557 3.85-3.974.364-7.977.261-11.961.277-11.341.045-22.33 2.632-33.395 4.813-.632.125-.364 1.089.266.964z" fill="#AFAFAF"/>
      </g>
      <g>
        <path d="M885.833 149.332c3.42-2.881 8.765-2.6 12.976-2.75 5.4-.192 10.676-1.121 15.991-2.027 5.535-.944 11.063-1.322 16.656-1.717 5.015-.354 10.688-.712 15.371-2.674.586-.245.329-1.213-.266-.964-5.176 2.168-11.365 2.388-16.893 2.761-5.729.387-11.323.971-16.982 1.946-5.505.948-10.929 1.541-16.506 1.773-3.761.156-8.051.415-11.054 2.944-.493.417.218 1.121.707.708z" fill="#AFAFAF"/>
      </g>
    </g>
    <g>
      <g fill="#AFAFAF">
        <path d="M1594.686 73.024l-.041-57.425h-.058c-.271-1.482-1.563-2.607-3.123-2.607s-2.853 1.125-3.123 2.607h-.058v56.147M1558.665 38.926c-.271-1.482-1.563-2.607-3.123-2.607s-2.853 1.125-3.123 2.607h-.058v61.547h.058c-.034.187-.058.377-.058.573 0 1.757 1.424 3.181 3.181 3.181s3.181-1.424 3.181-3.181c0-.196-.023-.387-.058-.573h.058V38.926h-.058z"/>
        <path d="M1553.59 37l36.35-23.594 4.746 4.495-35.963 23.373z"/>
      </g>
      <g>
        <path d="M1592.137 17.233c4.604.092 9.105 1.382 13.726 1.04 4.002-.297 7.768-2.031 11.786-2.165.643-.021.646-1.021 0-1-4.009.134-7.813 1.704-11.786 2.165-4.567.53-9.159-.948-13.726-1.04-.646-.013-.645.987 0 1z" fill="#AFAFAF"/>
      </g>
      <g>
        <path d="M1557.247 40.869c11.729-.597 23.235 3.647 34.647-.769.595-.23.337-1.197-.266-.964-11.327 4.382-22.745.14-34.382.732-.641.033-.643 1.033.001 1.001z" fill="#AFAFAF"/>
      </g>
      <g>
        <path d="M1591.74 41.097c6.913-5.691 13.877-11.425 20.118-17.848 1.872-1.927 4.122-3.543 5.845-5.604.632-.756.683-1.647-.43-1.787-.639-.08-.631.921 0 1-.618-.078-3.272 2.959-3.933 3.543-2.085 1.848-3.932 3.971-5.911 5.93-5.065 5.015-10.893 9.527-16.396 14.059-.498.41.214 1.113.707.707z" fill="#AFAFAF"/>
      </g>
      <g>
        <path d="M1618.273 16.733c-.359 3.855 1.073 8.236 1.885 11.95 1.55 7.098 3.332 14.146 5.123 21.186 1.746 6.859 3.543 13.704 5.301 20.56.596 2.325 1.189 4.651 1.744 6.987.168.709.331 1.42.475 2.135.092.457-.039.913.251.606-.442.468.263 1.176.707.707.458-.483-.016-1.703-.131-2.235-.452-2.095-.991-4.173-1.517-6.251-1.709-6.749-3.485-13.48-5.214-20.224-1.878-7.328-3.732-14.664-5.398-22.042-.933-4.132-2.626-9.084-2.226-13.379.06-.642-.94-.636-1 0z" fill="#AFAFAF"/>
      </g>
      <g>
        <path d="M1587.511 41.119c.577 8.266 2.231 16.397 3.741 24.53 1.047 5.634 1.801 11.31 2.824 16.947.896 4.936 1.856 9.862 2.94 14.761.413 1.868.844 3.737 1.387 5.573.18.606.382 1.667.985 2.024.556.329 1.059-.535.504-.863-.532-.315-.828-2.492-.98-3.072-.515-1.971-.945-3.964-1.373-5.956-.971-4.531-1.84-9.084-2.663-13.644-.963-5.333-1.677-10.704-2.659-16.036-1.483-8.048-3.135-16.085-3.706-24.264-.045-.64-1.045-.644-1 0z" fill="#AFAFAF"/>
      </g>
      <g>
        <path d="M1558.747 100.895c12.89-.462 28.144-5.006 39.516 3.308.521.381 1.02-.487.504-.863-11.547-8.443-26.937-3.915-40.02-3.445-.643.022-.645 1.022 0 1z" fill="#AFAFAF"/>
      </g>
      <g>
        <path d="M1558.747 94.892c7.407.335 14.692-1.259 22.07-1.16 4.958.067 10.298 2.016 15.204.767.625-.159.359-1.123-.266-.964-4.94 1.258-10.552-.743-15.567-.811-7.167-.097-14.24 1.494-21.441 1.168-.645-.029-.642.971 0 1z" fill="#AFAFAF"/>
      </g>
      <g>
        <path d="M1558.239 83.619c3.872 1.242 7.821 1.923 11.876 2.173 3.798.233 7.525-.256 11.307-.407 2.658-.106 5.32-.079 7.979-.139 1.332-.03 3.68.257 4.864-.551.529-.361.03-1.228-.504-.863-1.212.826-4.104.412-5.494.438-2.439.046-4.88.038-7.317.135-3.318.133-6.58.515-9.913.428-4.266-.111-8.474-.876-12.531-2.177-.617-.198-.878.767-.267.963z" fill="#AFAFAF"/>
      </g>
      <g>
        <path d="M1558.99 75.366c11.548 1.856 24.25 3.928 35.274-1.176.585-.271.077-1.132-.504-.863-10.737 4.971-23.272 2.88-34.505 1.076-.63-.103-.901.861-.265.963z" fill="#AFAFAF"/>
      </g>
      <g>
        <path d="M1557.489 67.112c11.772 2.605 24.124.226 35.531-3.001.62-.175.356-1.14-.266-.964-11.233 3.178-23.403 5.567-35 3.001-.627-.139-.895.825-.265.964z" fill="#AFAFAF"/>
      </g>
      <g>
        <path d="M1557.114 58.108c3.135.879 6.289 1.952 9.538 2.319 3.535.399 6.847-.198 10.34-.622 2.583-.313 5.158-.704 7.723-1.144 1.586-.272 4.072-.355 5.423-1.354.513-.379.015-1.247-.504-.863-1.261.932-3.699.99-5.185 1.252-2.634.465-5.285.845-7.94 1.167-3.085.374-6.045.9-9.167.641-3.393-.281-6.705-1.448-9.962-2.36-.622-.174-.886.791-.266.964z" fill="#AFAFAF"/>
      </g>
      <g>
        <path d="M1557.114 48.729c9.833 2.873 21.536 2.598 31.404 0 .623-.164.358-1.128-.266-.964-9.672 2.546-21.235 2.816-30.873 0-.619-.182-.883.784-.265.964z" fill="#AFAFAF"/>
      </g>
      <g>
        <path d="M1564.625 40.369c.042 12.705 1.347 25.343 1.029 38.058-.119 4.729-.412 9.476-.23 14.206.068 1.786-.348 5.019.611 6.609.086.144.257.26.432.248.481-.033.572-.428.642-.837.106-.63-.857-.9-.965-.266-.079.471.738.518.634-.292-.083-.637-.121-1.28-.167-1.92-.101-1.415-.163-2.833-.213-4.251-.168-4.792.159-9.619.279-14.41.311-12.406-1.011-24.748-1.052-37.145-.002-.645-1.002-.645-1 0z" fill="#AFAFAF"/>
      </g>
      <g>
        <path d="M1571.754 41.119c.789 6.594.165 13.263.259 19.883.068 4.921 1.066 9.689 1.584 14.564.475 4.474.877 8.957 1.538 13.409.379 2.552.616 6.932 2.768 8.772.487.417 1.198-.287.707-.707-2.069-1.77-2.227-6.422-2.593-8.887-.671-4.517-1.039-9.076-1.53-13.615-.521-4.822-1.418-9.516-1.486-14.391-.089-6.343.51-12.708-.246-19.029-.076-.632-1.077-.639-1.001.001z" fill="#AFAFAF"/>
      </g>
      <g>
        <path d="M1580.024 42.002c2.751 10.336 1.083 21.214 2.01 31.756.454 5.162 1.266 10.554 2.605 15.56.85 3.177.863 6.552 1.763 9.708.177.619 1.142.356.965-.266-.852-2.989-.99-6.199-1.651-9.238-1.2-5.515-2.269-11.073-2.764-16.703-.91-10.349.741-20.922-1.963-31.084-.166-.621-1.131-.357-.965.267z" fill="#AFAFAF"/>
      </g>
      <g>
        <path d="M1601.494 105.293c-2.215-1.734 10.434-9.248 11.997-10.199 7.086-4.31 15.109-7.286 19.596-14.707.335-.553-.53-1.056-.863-.505-4.832 7.993-14.339 11.312-21.978 16.019-1.54.949-12.984 7.339-9.459 10.098.502.394 1.215-.309.707-.706z" fill="#AFAFAF"/>
      </g>
      <g>
        <path d="M1611.214 23.363c3.283 4.464 4.715 10.009 5.893 15.341 1.254 5.68 1.992 11.458 3.181 17.151 1.056 5.059 1.801 10.177 2.929 15.222 1.016 4.545 2.307 9.501 5.334 13.164.411.498 1.114-.214.707-.707-3.336-4.037-4.467-9.751-5.515-14.747-1.004-4.782-1.771-9.612-2.738-14.402-2.088-10.355-2.444-22.713-8.927-31.527-.379-.513-1.247-.015-.864.505z" fill="#AFAFAF"/>
      </g>
      <g>
        <path d="M1606.415 29.467c2.749 3.42 3.005 8.897 3.456 13.057.509 4.684.763 9.403 1.578 14.049 1.014 5.771 2.993 11.402 4.21 17.145 1.026 4.844.799 11.486 4.262 15.4.428.484 1.133-.226.707-.707-2.026-2.291-2.472-5.727-2.854-8.65-.426-3.246-1.157-6.472-1.891-9.659-1.269-5.518-3.142-10.923-3.893-16.545-.638-4.778-.848-9.604-1.521-14.377-.499-3.534-1.037-7.547-3.347-10.419-.404-.504-1.106.209-.707.706z" fill="#AFAFAF"/>
      </g>
      <g>
        <path d="M1602.017 33.991c-.254-1.898-.021.307-.188.083.493.661.892 1.389 1.278 2.114.907 1.701 1.469 3.575 1.943 5.434.989 3.871 1.268 7.911 1.473 11.887.276 5.333.265 10.677.934 15.982.675 5.356 1.579 10.69 2.592 15.992.419 2.189.86 4.379 1.422 6.537.178.684.361 2.021 1.049 2.43.556.331 1.058-.534.504-.863-.531-.316-.85-2.865-1-3.514-.531-2.282-.967-4.586-1.392-6.889-.958-5.193-1.831-10.422-2.41-15.671-1.242-11.264 1.331-25.554-6.352-35-.129-.158-.441-.201-.605-.078-.056.042-.112.083-.167.125-.19.142-.284.324-.23.564.05.289.1.579.149.868.084.628 1.085.636 1-.001z" fill="#AFAFAF"/>
      </g>
      <g>
        <path d="M1594.281 39c1.626 5.764 2.919 11.608 4.133 17.471 1.135 5.479 2.488 10.973 3.364 16.498 1.431 9.023-.019 18.884 4.184 27.303.288.577 1.15.07.863-.505-4.223-8.458-2.752-18.67-4.194-27.768-.838-5.287-2.174-10.549-3.252-15.793-1.207-5.864-2.508-11.708-4.133-17.471-.175-.62-1.14-.356-.965.265z" fill="#AFAFAF"/>
      </g>
      <g>
        <path d="M1590.693 49.625c3.679-6.057 10.247-9.059 16.248-12.313 2.6-1.41 4.903-2.854 6.916-5.043 2.151-2.341 3.816-5.271 6.669-6.851.564-.313.061-1.176-.504-.863-2.506 1.388-4.17 3.771-5.954 5.94-2.481 3.014-5.512 4.817-8.905 6.641-5.784 3.108-11.813 6.188-15.333 11.984-.336.553.529 1.055.863.505z" fill="#AFAFAF"/>
      </g>
      <g>
        <path d="M1591.762 58.126c5.977-.51 10.606-4.496 14.925-8.304 5.208-4.592 11.521-8.477 15.817-13.978.392-.502-.311-1.215-.707-.707-3.743 4.793-9.069 8.16-13.656 12.079-4.822 4.121-9.686 9.338-16.379 9.909-.638.055-.643 1.056 0 1.001z" fill="#AFAFAF"/>
      </g>
      <g>
        <path d="M1593.319 66.132c1.651-2.17 4.376-3.483 6.737-4.722 2.834-1.487 5.765-2.783 8.617-4.233 5.811-2.953 11.474-7.205 15.409-12.43.389-.516-.48-1.013-.863-.505-4.419 5.866-10.852 10.052-17.382 13.228-4.428 2.153-10.291 4.094-13.382 8.156-.39.515.48 1.012.864.506z" fill="#AFAFAF"/>
      </g>
      <g>
        <path d="M1593.991 75.237c6.298-6.112 14.842-9.296 22.003-14.249 2.783-1.925 5.563-3.863 8.242-5.932.821-.634 3.388-2.134 3.291-3.433-.048-.639-1.048-.644-1 0 .032.438-1.255 1.312-1.536 1.552-1.194 1.021-2.471 1.948-3.737 2.876-2.495 1.829-5.048 3.578-7.593 5.336-6.672 4.61-14.479 7.418-20.377 13.142-.464.451.244 1.158.707.708z" fill="#AFAFAF"/>
      </g>
      <g>
        <path d="M1595.016 83.944c5.757-4.219 12.782-6.544 19.148-9.662 5.759-2.821 12.174-6.463 14.796-12.652.249-.586-.612-1.097-.863-.505-2.735 6.457-9.607 9.966-15.595 12.856-6.01 2.901-12.568 5.125-17.99 9.099-.515.378-.017 1.246.504.864z" fill="#AFAFAF"/>
      </g>
      <g>
        <path d="M1597.368 94.371c9.614-10.17 23.948-14.355 33.014-25.136.412-.49-.292-1.201-.707-.707-9.06 10.774-23.397 14.964-33.014 25.136-.442.468.264 1.176.707.707z" fill="#AFAFAF"/>
      </g>
      <g>
        <path d="M1566.358 41.251c1.05-3.145 4.257-5.211 6.897-6.923 2.638-1.708 5.438-3.147 8.138-4.752 5.717-3.399 12.323-5.999 16.428-11.465.388-.516-.481-1.014-.863-.505-2.558 3.406-6.131 5.561-9.819 7.552-2.957 1.596-5.813 3.335-8.734 4.989-4.495 2.544-11.234 5.52-13.011 10.839-.205.613.761.874.964.265z" fill="#AFAFAF"/>
      </g>
      <g>
        <path d="M1574.186 42.497c2.714-6.031 10.086-7.853 15.517-10.588 5.748-2.895 11.916-8.524 14.172-14.667.223-.606-.744-.866-.965-.266-2.508 6.832-9.583 12.212-15.97 15.154-5.057 2.33-11.16 4.401-13.617 9.862-.263.583.599 1.092.863.505z" fill="#AFAFAF"/>
      </g>
      <g>
        <path d="M1581.74 42.002c1.756-5.678 8.407-8.573 13.078-11.471 5.598-3.472 10.638-7.696 14.93-12.694.418-.486-.286-1.197-.707-.707-4.812 5.603-10.533 10.039-16.847 13.827-4.369 2.622-9.81 5.577-11.419 10.779-.19.618.775.88.965.266z" fill="#AFAFAF"/>
      </g>
      <g>
        <path d="M1586.002 20.591c7.693 2.854 16.402-.669 23.891 2.576.585.254 1.095-.607.504-.863-7.621-3.303-16.346.21-24.129-2.677-.606-.225-.866.742-.266.964z" fill="#AFAFAF"/>
      </g>
      <g>
        <path d="M1579.382 25.111c9.367-.009 18.922-.265 27.51 4.059.574.289 1.08-.573.504-.863-8.762-4.412-18.447-4.205-28.014-4.195-.645 0-.645 1 0 .999z" fill="#AFAFAF"/>
      </g>
      <g>
        <path d="M1572.275 28.717c3.396 2.989 8.17 3.69 12.52 4.1 5.185.488 10.399.189 15.596.174.645-.002.645-1.002 0-1-4.525.014-9.043.2-13.567-.03-4.621-.235-10.208-.754-13.841-3.951-.483-.425-1.193.28-.708.707z" fill="#AFAFAF"/>
      </g>
      <g>
        <path d="M1562.998 32.922c4.713 2.5 9.598 4.809 14.956 5.456 2.558.309 4.958.111 7.512-.121 2.66-.242 5.854-.663 8.295.667.565.309 1.07-.555.504-.863-3.714-2.024-8.676-.731-12.665-.477-6.373.407-12.631-2.626-18.098-5.525-.568-.302-1.074.561-.504.863z" fill="#AFAFAF"/>
      </g>
    </g>
    <g>
      <path fill="#B1F2B7" d="M157.906 48.946v156.082h5.181v-31.734H200L176.039 147.4h16.718l-20.732-33.046h6.928z"/>
      <path fill="#2F7535" d="M157.906 48.946v156.082h-5.181v-31.734h-36.913l23.961-25.894h-16.719l20.733-33.046h-6.929z"/>
    </g>
    <g>
      <path fill="#B1F2B7" d="M1713.838 0v124.6h4.137V99.267h29.466l-19.128-20.671h13.347l-16.551-26.381h5.531z"/>
      <path fill="#2D6B33" d="M1713.838 0v124.6h-4.136V99.267h-29.467l19.128-20.671h-13.346l16.55-26.381h-5.53z"/>
    </g>
    <g>
      <path fill="#B1F2B7" d="M608.493 129.171v134.296h4.458v-27.304h31.761l-20.617-22.28h14.385l-17.839-28.433h5.962z"/>
      <path fill="#326D35" d="M608.493 129.171v134.296h-4.458v-27.304h-31.761l20.618-22.28h-14.386l17.839-28.433h-5.962z"/>
    </g>
    <path d="M0 153.27c26.055 12.659 54.927 25.913 85.517 39.136 123.702 53.473 228.577 86.193 234.244 73.082 2.546-5.889-15.365-20.025-47.068-38.654C100.452 202.206 0 142.191 0 142.191v11.079z" fill="#A1E5A7"/>
    <g>
      <path fill="#B1F2B7" d="M285.597 133.86v104.223h3.46v-21.19h24.648l-16-17.291h11.164l-13.844-22.066h4.626z"/>
      <path fill="#4D9954" d="M285.597 133.86v104.223h-3.459v-21.19h-24.649l16-17.291h-11.163l13.843-22.066h-4.626z"/>
    </g>
    <g>
      <g>
        <path d="M1709.6 125.694c-2.332-2.212-3.02-5.824-5.208-8.224-.202.262-.404.523-.605.785 2.423 1.772 3.872 4.376 5.303 6.948.253.455.907.225.932-.252.053-1.011.208-2.006.273-3.016h-1c.071.826.203 1.642.274 2.467.042.482.658.7.932.252.371-.607.684-1.084.873-1.764l-.914.12.48 1.667c.041.373.394.628.752.432.769-.421 1.133-.774 1.55-1.55l-.932-.252c-.085.504-.171 1.008-.256 1.512-.145.497.479.817.836.486.69-.638 1.289-1.185 1.723-2.02l-.932-.252c-.006.709-.04 1.382-.257 2.06-.142.445.365.75.734.564 1.472-.737 2.523-.643 4.001-.224.044-.327.089-.655.133-.982-3.134.046-6.418.412-9.298 1.713-.588.265-.078 1.126.504.863 2.717-1.227 5.846-1.532 8.794-1.576.565-.008.68-.827.133-.982-1.744-.495-3.146-.49-4.771.324.244.188.489.376.734.564.247-.774.285-1.517.292-2.326.004-.484-.699-.701-.932-.252-.412.793-.938 1.237-1.566 1.818.278.162.558.324.836.486.276-.951.251-.802.291-1.778.021-.495-.698-.686-.932-.252-.397.397-.794.794-1.19 1.192.25.144.501.288.752.432-.09-.819-.266-1.429-.617-2.171-.191-.405-.806-.271-.914.12-.192.542-.449 1.051-.771 1.525l.932.252c-.071-.826-.203-1.642-.274-2.467-.056-.64-.958-.648-1 0-.065 1.009-.221 2.005-.273 3.016l.932-.252c-1.527-2.747-3.083-5.421-5.662-7.307-.478-.35-.971.385-.605.785 2.191 2.404 2.856 5.994 5.208 8.224.465.443 1.173-.263.705-.708z" fill="#1C511F"/>
      </g>
    </g>
    <g>
      <g>
        <path d="M1710.276 126.455c.225-.806.825-.921 1.578-.748.628.146.894-.819.266-.964-1.284-.297-2.431.095-2.809 1.446-.173.622.792.886.965.266z" fill="#1C511F"/>
      </g>
    </g>
    <path d="M0 142.191v3.489h6.239C2.112 143.453 0 142.191 0 142.191z" fill="#62B76E"/>
  </g>
</svg>
