<svg id="Layer_3" xmlns="http://www.w3.org/2000/svg" width="1800.104" height="339.266" viewBox="0 0 1800.104 339.266">
  <g id="mountains">
    <path fill="#62B76E" d="M384.061 338.266L621.525 90.608s24.115-38.156 67.27-38.156c0 0 35.539-6.424 65.579 30.58l218.73 255.234H384.061z"/>
    <path fill="#62B76E" d="M0 338.266L280.624 45.595S309.123.504 360.12.504c0 0 41.998-7.592 77.498 36.138l258.486 301.624H0zM714 338.266L949.879 92.262s23.954-37.901 66.82-37.901c0 0 35.301-6.382 65.14 30.375l217.271 253.53H714z"/>
    <path fill="#62B76E" d="M1040 338.266l280.624-292.671S1349.123.504 1400.12.504c0 0 41.998-7.592 77.497 36.138l258.486 301.624H1040z"/>
    <path fill="#62B76E" d="M1273.766 338.266l212.186-221.294s21.549-34.094 60.108-34.094c0 0 31.756-5.741 58.597 27.324l195.447 228.064h-526.338z"/>
    <path fill="#A1E5A7" d="M384.061 118.81l-5.876-64.873L593 217.589v-.001L437.775 36.642C402.275-7.088 360.199.504 360.199.504c-50.998 0-79.536 45.05-79.536 45.05L51.719 284.266h-.01L312.353 62.105l71.708 56.705z"/>
    <path fill="#A1E5A7" d="M567.583 187.959l44.829-35.666 20.605 11.591s23.181-92.724 87.572-94.012l95.871 85.609-62.088-72.45c-30.04-37.004-65.579-30.58-65.579-30.58-43.154 0-67.27 38.156-67.27 38.156l-82.291 85.824 28.351 11.528zM827.666 337.672l47.742-87.463L918 221.836v-25.57l88.555-126.394s4.656-9.92 40.286-11.399h.001c-17.013-6.485-30.143-4.112-30.143-4.112-42.866 0-66.82 37.901-66.82 37.901L714.184 338.075l113.482-.403zM1354.203 93.054l27.045-41.028 21.893 30.471 15.454-52.546 23.181 39.923 7.728-27.044 71.933 44.945-43.818-51.131C1442.12-7.086 1400.122.506 1400.122.506c-50.997 0-79.496 45.091-79.496 45.091L1040 338.266l300.037-270.969 14.166 25.757z"/>
    <path fill="#A1E5A7" d="M1493 260.266l-34.601-44.869 95.419-119.769s59.459 24.638 130.622 107.672l-79.784-93.1c-26.841-33.065-58.597-27.324-58.597-27.324-38.56 0-60.108 34.094-60.108 34.094l-212.186 221.294h114.141l70.493-78H1493z"/>
    <g fill="#55A05C">
      <path d="M204.734 292.752c.128-.928.199-1.895.199-2.89 0-6.155-2.606-11.263-6.027-12.261.872-2.053 1.387-4.58 1.387-7.314 0-5.775-2.294-10.63-5.403-12.032.487-1.672.762-3.557.762-5.552 0-6.871-3.247-12.441-7.25-12.441-4.005 0-7.251 5.57-7.251 12.441 0 1.996.275 3.88.762 5.552-3.109 1.402-5.403 6.257-5.403 12.032 0 2.681.496 5.161 1.336 7.192-3.679.6-6.557 5.914-6.557 12.383 0 1.097.083 2.16.239 3.173-2.839 1.686-4.879 6.311-4.879 11.757 0 6.871 3.246 12.441 7.25 12.441 1.905 0 3.637-1.262 4.931-3.323 1.294 2.061 2.953 3.323 4.857 3.323.837 0 1.313-.246 2.313-.693v21.726h5v-22.02c1 .635 1.722.987 2.728.987 1.765 0 3.33-1.084 4.587-2.883 1.258 1.799 2.849 2.883 4.614 2.883 4.004 0 7.237-5.57 7.237-12.441.001-5.786-2.314-10.648-5.432-12.04zM661.04 304.097c.097-.696.149-1.423.149-2.17 0-4.621-1.956-8.456-4.525-9.205.654-1.541 1.041-3.438 1.041-5.491 0-4.335-1.722-7.98-4.056-9.033.365-1.255.572-2.67.572-4.168 0-5.158-2.438-9.34-5.443-9.34-3.007 0-5.443 4.182-5.443 9.34 0 1.499.207 2.914.572 4.168-2.334 1.053-4.056 4.697-4.056 9.033 0 2.012.372 3.875 1.003 5.399-2.762.45-4.922 4.44-4.922 9.296 0 .823.062 1.622.179 2.382-2.131 1.266-3.663 4.738-3.663 8.826 0 5.159 2.437 9.34 5.443 9.34 1.431 0 2.731-.947 3.702-2.494.971 1.547 2.229 2.494 3.658 2.494.629 0 .749-.184 1.749-.52v16.311h4v-16.531c0 .477 1.158.74 1.913.74 1.326 0 2.432-.813 3.376-2.164.944 1.351 2.104 2.164 3.43 2.164 3.006 0 5.417-4.181 5.417-9.34 0-4.342-1.755-7.992-4.096-9.037zM1584.547 301.248c.107-.774.167-1.582.167-2.413 0-5.141-2.175-9.407-5.033-10.242.727-1.714 1.156-3.824 1.156-6.109 0-4.824-1.914-8.877-4.514-10.05.407-1.396.639-2.97.639-4.638 0-5.739-2.714-10.392-6.058-10.392-3.345 0-6.056 4.653-6.056 10.392 0 1.667.23 3.242.638 4.638-2.598 1.173-4.514 5.226-4.514 10.05 0 2.24.414 4.312 1.116 6.008-3.072.501-5.476 4.94-5.476 10.344 0 .917.067 1.805.198 2.651-2.372 1.407-4.076 5.271-4.076 9.819 0 5.74 2.711 10.392 6.056 10.392 1.593 0 3.039-1.054 4.119-2.775 1.08 1.721 2.518 2.775 4.107 2.775.701 0 1.982-.205 1.982-.579v18.148h5v-18.393c0 .531.977.824 1.818.824 1.471 0 2.551-.905 3.598-2.408 1.051 1.503 2.265 2.408 3.739 2.408 3.345 0 5.989-4.652 5.989-10.392.003-4.833-1.99-8.895-4.595-10.058zM1208.979 310.002c.082-.597.127-1.219.127-1.858 0-3.958-1.674-7.241-3.874-7.884.56-1.319.892-2.944.892-4.703 0-3.713-1.475-6.834-3.475-7.736.313-1.074.491-2.286.491-3.57 0-4.417-2.089-8-4.663-8-2.575 0-4.661 3.582-4.661 8 0 1.284.177 2.496.49 3.57-1.999.902-3.475 4.022-3.475 7.736 0 1.724.319 3.318.859 4.625-2.365.385-4.216 3.803-4.216 7.962 0 .705.054 1.389.154 2.04-1.826 1.084-3.139 4.058-3.139 7.559 0 4.418 2.088 7.999 4.662 7.999 1.226 0 2.339-.811 3.171-2.136.831 1.325 1.432 2.136 2.656 2.136.539 0 1.021-.157 1.021-.445v13.969h4v-14.157c0 .408 1.181.633 1.829.633 1.134 0 2.179-.697 2.985-1.853.809 1.156 1.851 1.853 2.985 1.853 2.575 0 4.663-3.581 4.663-7.999.002-3.719-1.478-6.846-3.482-7.741z"/>
    </g>
    <path fill="#7FD687" d="M37.771 313.121l16.78-7.872c9.083 1.514 21.258-.152 21.258-.152l19.709-10.672c12.11-7.569 12.127-7.607 12.127-7.607s-7.569 3.027 0 0c7.569-3.028 6.063 12.849 6.063 12.849l13.628-.202c7.569 13.059.002 22.137.002 22.137 16.651-7.568 16.652-7.57 16.652-7.57s-7.569-4.541 0 0 7.569 4.539 7.569 4.539-15.138 7.569 0 0c15.138-7.568 19.68 3.363 19.68 3.363 6.055-9.419 18.166-17.769 18.166-17.769 7.569 15.918 18.165 17.769 18.165 17.769 12.11-7.905 19.679-6.392 19.679-6.392l7.569 6.392c7.569-4.878 13.624 0 13.624 0 10.596-1.851 18.165-6.392 18.165-6.392 10.597-9.083 18.746-19.679 18.746-19.679 6.988-13.624 8.502-9.466 8.502-9.466-8.502 9.466 0 26.118 0 26.118l-8.502 9.419c8.502-9.419 25.697-7.705 25.697-7.705-7.666.169-9.626-9.962-9.626-9.962H311c.052 9.962 13-.4 13-.4v-6.6l-4.409-7.459s-4.409-7.459 0 0 10.596 14.059 10.596 14.059c10.597-4.976 16.874-10.832 16.874-10.832 17.943 0 13.402 11.231 13.402 11.231H380c.142-15.973 0-20 0-20l3.169-12.624s-10.596-15.138 0-4.542 15.669 17.166 15.669 17.166c-5.073 14.624-6.586 25.387-6.586 25.387l6.586 12.613H415l16.61-15.808s-7.569-6.055 0 0 16.651 7.569 16.651 7.569c10.596-6.055 16.651-10.597 16.651-10.597 15.138-7.569 12.11 3.027 12.11 3.027l16.49 4.543c0 7.569 16.488 11.266 16.488 11.266v16L.184 338.075c9.083-11.937 14.525-7.396 14.525-7.396l23.062-17.558z"/>
    <path fill="#A1E5A7" d="M341.267 305.43l21.912-10.279c11.861 1.977 27.76-.199 27.76-.199l25.737-13.936c15.814-9.884 15.836-9.934 15.836-9.934s-9.884 3.953 0 0c9.884-3.954 7.917 16.779 7.917 16.779l17.796-.264c9.884 17.053.002 28.907.002 28.907 21.744-9.883 21.746-9.886 21.746-9.886s-9.884-5.93 0 0c9.883 5.93 9.884 5.928 9.884 5.928s-19.768 9.884 0 0c19.767-9.883 25.698 4.392 25.698 4.392 7.907-12.3 23.721-23.203 23.721-23.203 9.883 20.786 23.72 23.203 23.72 23.203 15.814-10.323 25.698-8.347 25.698-8.347l9.883 8.347c9.884-6.37 17.791 0 17.791 0 13.837-2.417 23.721-8.347 23.721-8.347 13.838-11.86 24.479-25.697 24.479-25.697 9.125-17.791 11.102-12.361 11.102-12.361-11.102 12.361 0 34.105 0 34.105l-11.102 12.3c11.102-12.3 33.556-9.862 33.556-9.862-10.01.221-12.57-12.81-12.57-12.81h12.503c.067 13 16.942-.921 16.942-.921v-8.618c-6-9.74-5.74-9.74-5.74-9.74s-5.758-9.74 0 0c5.757 9.74 13.845 18.358 13.845 18.358 13.837-6.498 22.038-13.944 22.038-13.944 23.431 0 17.505 14.865 17.505 14.865h25.512c.185-21 0-26.316 0-26.316 4.139-16.485 7.278 10.201 7.278 10.201-6.624 19.097 8.721 22.747 8.721 22.747l8.601 16.368h21.104c21.69-21 21.69-20.588 21.69-20.588s-9.884-7.907 0 0c9.883 7.907 21.744 9.911 21.744 9.911 13.837-7.907 21.744-13.824 21.744-13.824 19.768-9.883 15.814 3.96 15.814 3.96l21.57 5.934c0 9.883 21.572 14.715 21.572 14.715v20.894l-665.775-.25c11.86-15.588 18.947-9.657 18.947-9.657l30.098-22.931z"/>
    <g fill="#72C479">
      <path d="M1067.977 293.222c.13-.938.201-1.917.201-2.924 0-6.227-2.635-11.394-6.096-12.404.88-2.076 1.402-4.632 1.402-7.399 0-5.842-2.32-10.752-5.468-12.171.493-1.691.773-3.598.773-5.617 0-6.95-3.286-12.586-7.336-12.586-4.053 0-7.335 5.636-7.335 12.586 0 2.02.278 3.926.771 5.617-3.146 1.419-5.467 6.329-5.467 12.171 0 2.712.502 5.221 1.353 7.276-3.722.606-6.633 5.983-6.633 12.527 0 1.109.084 2.186.241 3.21-2.873 1.706-4.938 6.385-4.938 11.893 0 6.952 3.284 12.586 7.335 12.586 1.929 0 3.681-1.275 4.989-3.36 1.308 2.085 2.475 3.36 4.401 3.36.848 0 1.827-.247 1.827-.701v21.979h6V316.99c0 .643 1.784.997 2.803.997 1.785 0 3.39-1.096 4.659-2.916 1.273 1.82 2.894 2.916 4.679 2.916 4.053 0 7.328-5.634 7.328-12.586.003-5.851-2.334-10.771-5.489-12.179zM1463.114 314.738c.069-.5.107-1.021.107-1.557 0-3.317-1.403-6.069-3.247-6.608.469-1.106.746-2.467.746-3.941 0-3.112-1.235-5.728-2.912-6.484.263-.901.412-1.917.412-2.992 0-3.703-1.751-6.705-3.908-6.705-2.158 0-3.907 3.002-3.907 6.705 0 1.076.148 2.091.411 2.992-1.676.756-2.912 3.372-2.912 6.484 0 1.445.268 2.781.721 3.876-1.982.323-3.533 3.188-3.533 6.673 0 .591.044 1.165.128 1.71-1.53.908-2.63 3.401-2.63 6.335 0 3.703 1.749 6.705 3.907 6.705 1.027 0 1.961-.68 2.657-1.79.697 1.11 1.583 1.79 2.608 1.79.452 0 1.237-.132 1.237-.374v11.708h3V327.4c0 .342.785.531 1.328.531.949 0 1.723-.584 2.398-1.554.678.97 1.5 1.554 2.451 1.554 2.158 0 3.883-3.001 3.883-6.705.002-3.117-1.264-5.738-2.945-6.488z"/>
    </g>
    <path fill="#58A85F" d="M1155.836 305.43l-21.911-10.279c-11.86 1.977-27.76-.199-27.76-.199l-25.737-13.936c-15.814-9.884-15.836-9.934-15.836-9.934s9.883 3.953 0 0c-9.885-3.954-7.918 16.779-7.918 16.779l-17.795-.264c-9.885 17.053-.003 28.907-.003 28.907-21.744-9.883-21.745-9.886-21.745-9.886s9.883-5.93 0 0c-9.884 5.93-9.885 5.928-9.885 5.928s19.768 9.884 0 0c-19.768-9.883-25.698 4.392-25.698 4.392-7.907-12.3-23.722-23.203-23.722-23.203-9.883 20.786-23.72 23.203-23.72 23.203-15.814-10.323-25.698-8.347-25.698-8.347l-9.883 8.347c-9.885-6.37-17.791 0-17.791 0-13.837-2.417-23.721-8.347-23.721-8.347-13.838-11.86-24.479-25.697-24.479-25.697-9.126-17.791-11.103-12.361-11.103-12.361 11.103 12.361 0 34.105 0 34.105l11.103 12.3c-11.103-12.3-33.556-9.862-33.556-9.862 10.01.221 12.57-12.81 12.57-12.81h-12.504c-.066 13-17.045-.921-17.045-.921v-8.618c6-9.74 5.792-9.74 5.792-9.74s5.758-9.74 0 0c-5.757 9.74-13.819 18.358-13.819 18.358-13.838-6.498-22.025-13.944-22.025-13.944-23.431 0-17.492 14.865-17.492 14.865h-25.512c-.186-21 0-26.316 0-26.316-4.139-16.485-4.139-16.584-4.139-16.584s13.836-19.817 0-5.98c-13.838 13.837-20.461 22.391-20.461 22.391 6.623 19.097 8.6 33.085 8.6 33.085l-8.6 16.405h-21.105c-21.689-21-21.689-20.588-21.689-20.588s9.883-7.907 0 0c-9.884 7.907-21.744 9.911-21.744 9.911-13.837-7.907-21.744-13.824-21.744-13.824-19.768-9.883-15.814 3.96-15.814 3.96l-21.53 5.934c-13.509 29.332-24.561 4.65-37.178 11.977-14.049 8.157-16.308 23.462-16.308 23.462l31.955.169 665.735-.25c-11.861-15.588-18.968-9.657-18.968-9.657l-30.117-22.931z"/>
    <path fill="#71C679" d="M1750.836 305.43l-21.911-10.279c-11.86 1.977-27.76-.199-27.76-.199l-25.737-13.936c-15.814-9.884-15.836-9.934-15.836-9.934s9.883 3.953 0 0c-9.885-3.954-7.918 16.779-7.918 16.779l-17.795-.264c-9.885 17.053-.003 28.907-.003 28.907-21.744-9.883-21.745-9.886-21.745-9.886s9.883-5.93 0 0c-9.884 5.93-9.885 5.928-9.885 5.928s19.768 9.884 0 0c-19.768-9.883-25.698 4.392-25.698 4.392-7.907-12.3-23.722-23.203-23.722-23.203-9.883 20.786-23.72 23.203-23.72 23.203-15.814-10.323-25.698-8.347-25.698-8.347l-9.883 8.347c-9.885-6.37-17.791 0-17.791 0-13.837-2.417-23.721-8.347-23.721-8.347-13.838-11.86-24.479-25.697-24.479-25.697-9.126-17.791-11.103-12.361-11.103-12.361 11.103 12.361 0 34.105 0 34.105l11.103 12.3c-11.103-12.3-33.556-9.862-33.556-9.862 10.01.221 12.57-12.81 12.57-12.81h-12.504c-.066 13-17.045-.921-17.045-.921v-8.618c6-9.74 5.792-9.74 5.792-9.74s5.758-9.74 0 0c-5.757 9.74-13.819 18.358-13.819 18.358-13.838-6.498-22.025-13.944-22.025-13.944-23.431 0-17.492 14.865-17.492 14.865h-25.512c-.186-21 0-26.316 0-26.316-4.139-16.485-4.139-16.584-4.139-16.584s13.836-19.817 0-5.98c-13.838 13.837-20.461 22.391-20.461 22.391 6.623 19.097 8.6 33.085 8.6 33.085l-8.6 16.405h-21.105c-21.689-21-21.689-20.588-21.689-20.588s9.883-7.907 0 0c-9.884 7.907-21.744 9.911-21.744 9.911-13.837-7.907-21.744-13.824-21.744-13.824-19.768-9.883-15.814 3.96-15.814 3.96l-21.53 5.934c0 9.883-21.531 14.713-21.531 14.713l-19.976 20.679 19.976.216 665.735-.25c-11.861-15.588-18.968-9.657-18.968-9.657l-30.117-22.931z"/>
    <g fill="#408947">
      <path d="M280.478 282.303c.158-1.141.245-2.33.245-3.554 0-7.568-3.204-13.848-7.411-15.076 1.072-2.524 1.705-5.631 1.705-8.993 0-7.101-2.82-13.07-6.643-14.794.599-2.056.937-4.373.937-6.827 0-8.449-3.992-15.298-8.915-15.298-4.924 0-8.916 6.849-8.916 15.298 0 2.454.339 4.771.938 6.827-3.823 1.724-6.644 7.693-6.644 14.794 0 3.296.609 6.346 1.644 8.843-4.524.737-8.063 7.271-8.063 15.226 0 1.349.103 2.656.293 3.902-3.491 2.073-6 7.76-6 14.456 0 8.448 3.991 15.297 8.915 15.297 2.342 0 4.472-1.552 6.063-4.085 1.591 2.534 3.409 4.085 5.751 4.085 1.029 0 1.623-.303 2.623-.853v26.714h7V311.19c1 .781 1.913 1.213 3.149 1.213 2.171 0 3.992-1.333 5.539-3.545 1.546 2.212 3.451 3.545 5.622 3.545 4.924 0 8.873-6.849 8.873-15.297 0-7.112-2.872-13.091-6.705-14.803zM546.476 291.105c.133-.961.207-1.964.207-2.995 0-6.378-2.7-11.67-6.246-12.705.903-2.127 1.437-4.745 1.437-7.578 0-5.984-2.377-11.015-5.599-12.468.504-1.732.79-3.685.79-5.753 0-7.119-3.364-12.892-7.513-12.892-4.15 0-7.513 5.772-7.513 12.892 0 2.068.285 4.021.79 5.753-3.222 1.453-5.599 6.484-5.599 12.468 0 2.777.513 5.348 1.385 7.452-3.813.621-6.794 6.128-6.794 12.831 0 1.137.086 2.238.247 3.289-2.942 1.747-5.056 6.54-5.056 12.182 0 7.12 3.364 12.891 7.513 12.891 1.974 0 3.769-1.307 5.109-3.442 1.34 2.135 3.027 3.442 5.001 3.442.867 0 1.365-.254 2.365-.718v22.513h6V315.45c0 .658 1.407 1.022 2.449 1.022 1.83 0 3.261-1.123 4.565-2.987 1.303 1.864 2.856 2.987 4.687 2.987 4.149 0 7.452-5.771 7.452-12.891 0-5.995-2.446-11.034-5.677-12.476zM916.122 302.803c.101-.723.155-1.477.155-2.252 0-4.796-2.029-8.775-4.695-9.554.678-1.599 1.08-3.567 1.08-5.699 0-4.5-1.787-8.282-4.211-9.375.38-1.302.596-2.771.596-4.326 0-5.353-2.531-9.693-5.65-9.693-3.121 0-5.649 4.34-5.649 9.693 0 1.555.215 3.024.594 4.326-2.422 1.093-4.21 4.875-4.21 9.375 0 2.089.386 4.021 1.042 5.604-2.867.467-5.109 4.608-5.109 9.648 0 .854.064 1.683.186 2.473-2.212 1.313-3.802 4.917-3.802 9.16 0 5.354 2.529 9.693 5.649 9.693 1.485 0 2.834-.982 3.842-2.588 1.007 1.605 2.038 2.588 3.521 2.588.652 0 1.54-.19 1.54-.54v16.928h4V321.11c0 .495 1.553.768 2.337.768 1.375 0 2.7-.844 3.679-2.246.98 1.401 2.272 2.246 3.647 2.246 3.121 0 5.667-4.339 5.667-9.693-.001-4.508-1.778-8.297-4.209-9.382zM1358.616 306.968c.091-.658.142-1.344.142-2.051 0-4.368-1.849-7.992-4.276-8.701.617-1.457.983-3.249.983-5.19 0-4.098-1.627-7.542-3.835-8.538.346-1.186.542-2.523.542-3.94 0-4.875-2.305-8.829-5.146-8.829-2.843 0-5.146 3.953-5.146 8.829 0 1.417.195 2.754.541 3.94-2.206.996-3.834 4.44-3.834 8.538 0 1.902.352 3.662.948 5.104-2.61.426-4.652 4.197-4.652 8.788 0 .778.059 1.533.169 2.252-2.016 1.196-3.463 4.479-3.463 8.343 0 4.876 2.303 8.829 5.145 8.829 1.354 0 2.582-.895 3.5-2.357.917 1.462 1.935 2.357 3.285 2.357.595 0 1.48-.174 1.48-.492v15.417h4v-15.625c0 .451 1.157.7 1.872.7 1.252 0 2.331-.769 3.222-2.046.893 1.277 2.006 2.046 3.258 2.046 2.843 0 5.129-3.952 5.129-8.829 0-4.106-1.651-7.557-3.864-8.545zM1637.075 305.613c.095-.685.147-1.4.147-2.136 0-4.551-1.925-8.327-4.455-9.066.643-1.517 1.023-3.385 1.023-5.408 0-4.27-1.694-7.857-3.995-8.896.36-1.235.565-2.629.565-4.105 0-5.08-2.402-9.198-5.362-9.198-2.961 0-5.36 4.119-5.36 9.198 0 1.476.204 2.87.564 4.105-2.3 1.039-3.996 4.626-3.996 8.896 0 1.983.367 3.816.988 5.318-2.719.443-4.847 4.373-4.847 9.156 0 .812.06 1.598.176 2.347-2.1 1.246-3.608 4.667-3.608 8.692 0 5.081 2.399 9.199 5.36 9.199 1.41 0 2.69-.933 3.646-2.456.956 1.523 2.071 2.456 3.479 2.456.619 0 1.598-.181 1.598-.512v16.064h5v-16.281c0 .47.734.729 1.479.729 1.303 0 2.193-.801 3.12-2.131.93 1.33 1.972 2.131 3.276 2.131 2.961 0 5.286-4.118 5.286-9.199.002-4.277-1.778-7.873-4.084-8.903z"/>
    </g>
    <g fill="#7ACE82">
      <path d="M432.652 300.455c.107-.771.166-1.574.166-2.401 0-5.113-2.165-9.356-5.007-10.186.724-1.706 1.152-3.804 1.152-6.076 0-4.798-1.906-8.831-4.488-9.996.404-1.389.633-2.954.633-4.612 0-5.708-2.697-10.336-6.023-10.336-3.327 0-6.023 4.628-6.023 10.336 0 1.658.229 3.224.633 4.612-2.583 1.165-4.489 5.198-4.489 9.996 0 2.227.412 4.287 1.11 5.975-3.057.498-5.447 4.913-5.447 10.287 0 .912.069 1.795.198 2.637-2.359 1.4-4.054 5.243-4.054 9.767 0 5.708 2.697 10.335 6.023 10.335 1.583 0 3.021-1.048 4.096-2.76 1.075 1.712 2.408 2.76 3.991 2.76.695 0 .877-.204 1.877-.576v18.049h5v-18.293c0 .527 1.052.819 1.888.819 1.467 0 2.577-.9 3.622-2.395 1.044 1.494 2.271 2.395 3.738 2.395 3.327 0 5.965-4.627 5.965-10.335 0-4.806-1.97-8.846-4.561-10.002zM787.571 296.292c.119-.855.184-1.748.184-2.666 0-5.677-2.403-10.387-5.559-11.308.804-1.893 1.279-4.223 1.279-6.745 0-5.326-2.116-9.803-4.983-11.096.449-1.542.703-3.28.703-5.121 0-6.336-2.994-11.473-6.687-11.473-3.694 0-6.687 5.137-6.687 11.473 0 1.841.254 3.579.703 5.121-2.867 1.293-4.983 5.77-4.983 11.096 0 2.472.457 4.76 1.233 6.633-3.393.553-6.047 5.454-6.047 11.42 0 1.011.076 1.992.22 2.927-2.618 1.555-4.5 5.82-4.5 10.842 0 6.337 2.994 11.473 6.686 11.473 1.758 0 3.355-1.163 4.548-3.063 1.192 1.9 2.576 3.063 4.332 3.063.772 0 .986-.226 1.986-.639v20.036h5v-20.307c0 .586 1.541.909 2.469.909 1.628 0 3.047-1 4.207-2.658 1.16 1.659 2.615 2.658 4.244 2.658 3.693 0 6.669-5.136 6.669-11.473 0-5.334-2.141-9.818-5.017-11.102zM866.315 291.818c.131-.946.203-1.934.203-2.95 0-6.282-2.659-11.494-6.151-12.513.889-2.095 1.415-4.673 1.415-7.464 0-5.893-2.341-10.847-5.514-12.278.497-1.706.778-3.629.778-5.667 0-7.011-3.313-12.696-7.399-12.696-4.087 0-7.4 5.685-7.4 12.696 0 2.037.281 3.961.778 5.667-3.173 1.431-5.514 6.385-5.514 12.278 0 2.736.505 5.267 1.364 7.34-3.754.612-6.691 6.036-6.691 12.637 0 1.119.084 2.205.243 3.239-2.897 1.72-4.979 6.44-4.979 11.998 0 7.013 3.313 12.696 7.399 12.696 1.945 0 3.712-1.287 5.032-3.39 1.319 2.103 2.915 3.39 4.858 3.39.854 0 1.263-.25 2.263-.707v22.172h5v-22.471c0 .648 1.907 1.006 2.934 1.006 1.802 0 3.473-1.106 4.756-2.941 1.284 1.835 2.945 2.941 4.747 2.941 4.086 0 7.405-5.684 7.405-12.696-.001-5.904-2.345-10.866-5.527-12.287zM1170.138 302.942c.103-.741.158-1.513.158-2.307 0-4.913-2.078-8.988-4.81-9.786.695-1.637 1.107-3.654 1.107-5.837 0-4.609-1.83-8.483-4.313-9.602.389-1.333.61-2.838.61-4.432 0-5.483-2.593-9.929-5.788-9.929-3.196 0-5.786 4.446-5.786 9.929 0 1.594.22 3.098.608 4.432-2.481 1.119-4.313 4.993-4.313 9.602 0 2.14.396 4.119 1.066 5.74-2.936.478-5.232 4.72-5.232 9.883 0 .875.066 1.724.191 2.532-2.267 1.345-3.896 5.037-3.896 9.382 0 5.485 2.592 9.929 5.787 9.929 1.521 0 2.903-1.006 3.937-2.651 1.031 1.645 1.762 2.651 3.283 2.651.668 0 1.252-.195 1.252-.553v17.339h5v-17.573c0 .506 1.463.786 2.268.786 1.406 0 2.702-.865 3.703-2.3 1.004 1.436 2.297 2.3 3.705 2.3 3.196 0 5.787-4.444 5.787-9.929.001-4.614-1.835-8.495-4.324-9.606z"/>
    </g>
  </g>
</svg>
