<?xml version="1.0" encoding="UTF-8"?>
<svg width="800px" height="1859px" viewBox="0 0 800 1859" version="1.1" xmlns="http://www.w3.org/2000/svg" xmlns:xlink="http://www.w3.org/1999/xlink">
    <!-- Generator: Sketch 43.1 (39012) - http://www.bohemiancoding.com/sketch -->
    <title>Group 11</title>
    <desc>Created with Sketch.</desc>
    <defs></defs>
    <g id="Page-1" stroke="none" stroke-width="1" fill="none" fill-rule="evenodd">
        <g id="Artboard" transform="translate(-165.000000, -56.000000)">
            <g id="007-four" transform="translate(165.000000, 61.000000)">
                <g id="Group-11">
                    <g id="Group-8" transform="translate(0.000000, 833.000000)">
                        <path d="M129.902,113.555 C126.269,111.914 121.441,111.094 115.426,111.094 L110.387,111.094 L110.387,20.39 C110.387,6.797 104.449,0 92.574,0 C88.902,0 85.758,1.23 83.141,3.691 C80.523,6.152 77.184,10.121 73.121,15.586 L11.012,98.672 C9.293,100.937 7.848,102.851 6.676,104.414 C5.504,105.98 4.371,107.598 3.277,109.277 C2.184,110.957 1.363,112.558 0.816,114.082 C0.269,115.605 0,117.113 0,118.594 C0,124.379 1.852,128.949 5.566,132.305 C9.273,135.668 14.84,137.344 22.262,137.344 L81.09,137.344 L81.09,159.14 C81.09,165 82.441,169.437 85.137,172.441 C87.828,175.449 91.363,176.953 95.742,176.953 C100.191,176.953 103.746,175.488 106.406,172.558 C109.059,169.633 110.387,165.16 110.387,159.144 L110.387,137.348 L117.539,137.348 C123.473,137.348 127.926,136.312 130.894,134.242 C133.863,132.172 135.348,128.871 135.348,124.34 C135.352,118.789 133.535,115.195 129.902,113.555 Z M81.094,111.094 L30.703,111.094 L81.094,43.008 L81.094,111.094 Z" id="Fill-2" fill="#091D28"></path>
                        <text id="Checkin" font-family="CarterOne, Carter One" font-size="48" font-weight="normal" letter-spacing="2.88" fill="#FEFCFB">
                            <tspan x="79" y="104">Checkin</tspan>
                        </text>
                    </g>
                    <g id="Group-4" transform="translate(473.000000, 100.000000)">
                        <path d="M114.121393,6.44975282 C110.587873,2.14947008 105.893945,0 100.048089,0 C94.8524011,0 91.3188809,0.94383352 89.4475287,2.83150056 C87.5648691,4.7191676 83.5338294,9.75384143 77.3558228,17.935522 C71.1665089,26.1172027 64.0726139,33.5121316 56.0713109,40.1203088 C48.060114,46.7271434 37.377576,53.021157 24.0222833,58.9996644 C15.0782371,62.9857834 8.83380033,66.2375114 5.30452043,68.7548484 C1.76676007,71.2721853 0,75.2046012 0,80.5547812 C0,85.1692276 1.79361482,89.2345589 5.38225787,92.74809 C8.97090092,96.2669913 13.089572,98.0190578 17.7227236,98.0190578 C27.439904,98.0190578 46.3216221,87.7912857 74.3749452,67.3384268 L74.3749452,210.512467 C74.3749452,218.908961 76.4116662,225.253992 80.5034825,229.548905 C84.5825782,233.849187 89.9931042,236 96.729407,236 C111.857113,236 119.421673,225.463435 119.421673,204.380906 L119.421673,24.2295356 C119.427327,16.6775249 117.654913,10.7554059 114.121393,6.44975282 Z" id="Fill-2" fill="#091D28"></path>
                        <text id="Morning" font-family="CarterOne, Carter One" font-size="48" font-weight="normal" letter-spacing="2.88" fill="#FEFCFB">
                            <tspan x="89" y="134">Morning</tspan>
                        </text>
                    </g>
                    <g id="Group-5" transform="translate(79.000000, 367.000000)">
                        <path d="M115.43,148.945 C112.223,146.445 107.579,145.195 101.481,145.195 L40.309,145.195 C42.262,142.226 44.176,139.687 46.055,137.578 C50.426,132.265 58.493,124.804 70.254,115.195 C82.008,105.586 90.387,98.535 95.391,94.043 C100.387,89.551 105.293,83.34 110.098,75.41 C114.903,67.48 117.305,58.672 117.305,48.984 C117.305,42.816 116.149,36.855 113.848,31.113 C111.54,25.371 108.317,20.312 104.18,15.937 C100.036,11.562 95.231,8.129 89.766,5.625 C81.329,1.875 71.133,0 59.18,0 C49.258,0 40.606,1.465 33.223,4.394 C25.84,7.324 19.747,11.172 14.942,15.937 C10.137,20.703 6.52,26.015 4.102,31.875 C1.676,37.734 0.469,43.359 0.469,48.75 C0.469,53.203 1.758,56.718 4.336,59.297 C6.914,61.875 10.153,63.164 14.063,63.164 C18.512,63.164 21.891,61.758 24.2,58.945 C26.5,56.133 28.571,52.113 30.411,46.875 C32.243,41.644 33.555,38.437 34.336,37.265 C40.196,28.285 48.239,23.789 58.477,23.789 C63.317,23.789 67.793,24.886 71.895,27.07 C75.997,29.261 79.235,32.328 81.622,36.269 C84,40.218 85.196,44.691 85.196,49.687 C85.196,54.301 84.079,59.004 81.856,63.808 C79.629,68.613 76.383,73.301 72.129,77.871 C67.868,82.441 62.536,86.996 56.133,91.523 C52.536,93.945 46.559,99.004 38.204,106.699 C29.84,114.394 20.465,123.633 10.079,134.414 C7.575,137.07 5.274,140.726 3.164,145.371 C1.055,150.019 0,153.75 0,156.562 C0,160.937 1.641,164.746 4.922,167.988 C8.204,171.23 12.77,172.851 18.633,172.851 L104.883,172.851 C110.04,172.851 113.883,171.523 116.426,168.867 C118.961,166.211 120.235,162.968 120.235,159.14 C120.235,154.847 118.629,151.449 115.43,148.945 Z" id="Fill-2" fill="#091D28"></path>
                        <text id="Yoga" font-family="CarterOne, Carter One" font-size="48" font-weight="normal" letter-spacing="2.88" fill="#FEFCFB">
                            <tspan x="83" y="102">Yoga</tspan>
                        </text>
                    </g>
                    <g id="Group-7" transform="translate(473.000000, 607.000000)">
                        <path d="M116.836,104.004 C114.727,98.891 111.578,94.219 107.402,90 C103.219,85.781 98.086,82.031 91.992,78.75 C98.32,73.438 103.184,67.988 106.582,62.402 C109.98,56.817 111.68,50.117 111.68,42.305 C111.68,36.367 110.504,30.82 108.16,25.664 C105.816,20.508 102.34,15.977 97.73,12.07 C93.121,8.164 87.691,5.176 81.445,3.106 C75.191,1.035 68.277,0 60.699,0 C52.027,0 44.18,1.231 37.148,3.692 C30.117,6.152 24.234,9.414 19.512,13.477 C14.781,17.539 11.191,21.817 8.727,26.309 C6.266,30.801 5.035,35.078 5.035,39.141 C5.035,43.359 6.344,46.738 8.961,49.277 C11.578,51.817 14.449,53.086 17.578,53.086 C20.23,53.086 22.574,52.617 24.605,51.68 C26.637,50.742 28.043,49.453 28.824,47.813 C30.152,44.766 31.617,41.524 33.219,38.086 C34.82,34.649 36.52,31.836 38.316,29.649 C40.113,27.461 42.555,25.703 45.641,24.375 C48.727,23.047 52.652,22.383 57.418,22.383 C64.449,22.383 70.035,24.551 74.176,28.887 C78.316,33.223 80.387,38.399 80.387,44.414 C80.387,52.305 77.789,58.359 72.594,62.578 C67.398,66.797 61.207,68.906 54.02,68.906 L49.215,68.906 C43.668,68.906 39.488,70.059 36.676,72.363 C33.863,74.668 32.457,77.695 32.457,81.445 C32.457,85.274 33.629,88.262 35.973,90.41 C38.32,92.559 41.637,93.633 45.934,93.633 C46.871,93.633 48.984,93.477 52.262,93.164 C55.547,92.852 57.965,92.695 59.527,92.695 C68.434,92.695 75.387,95.293 80.387,100.488 C85.387,105.684 87.887,112.852 87.887,121.992 C87.887,128.164 86.422,133.594 83.492,138.281 C80.563,142.969 76.852,146.504 72.359,148.887 C67.867,151.27 63.199,152.461 58.355,152.461 C49.918,152.461 43.375,149.824 38.727,144.551 C34.078,139.277 29.723,131.211 25.66,120.352 C25.035,118.555 23.707,117.012 21.68,115.723 C19.645,114.434 17.535,113.789 15.352,113.789 C10.973,113.789 7.324,115.176 4.395,117.949 C1.465,120.723 0,124.375 0,128.906 C0,132.422 1.23,136.875 3.691,142.266 C6.152,147.652 9.785,152.871 14.59,157.91 C19.395,162.949 25.504,167.149 32.93,170.508 C40.348,173.863 48.75,175.547 58.125,175.547 C67.34,175.547 75.762,174.082 83.379,171.152 C90.992,168.223 97.574,164.16 103.125,158.965 C108.668,153.77 112.867,147.852 115.723,141.211 C118.57,134.57 120,127.695 120,120.586 C120,114.649 118.945,109.125 116.836,104.004 Z" id="Fill-2" fill="#091D28"></path>
                        <g id="Group-6" transform="translate(72.000000, 51.000000)" font-size="48" font-family="CarterOne, Carter One" letter-spacing="2.88" fill="#FEFCFB" font-weight="normal">
                            <text id="Breakfast">
                                <tspan x="0" y="53">Breakfast</tspan>
                            </text>
                        </g>
                    </g>
                    <g id="Group-9" transform="translate(473.000000, 1081.000000)">
                        <path d="M116.484,90.117 C113.672,83.32 109.804,77.445 104.882,72.48 C99.961,67.519 94.234,63.632 87.715,60.82 C81.191,58.007 74.179,56.601 66.679,56.601 C57.304,56.601 47.066,59.574 35.976,65.507 L42.656,27.539 L98.32,27.539 C104.101,27.539 108.472,26.293 111.445,23.789 C114.41,21.289 115.898,18.007 115.898,13.945 C115.898,4.648 109.804,0 97.613,0 L35.738,0 C29.019,0 24.175,1.523 21.207,4.57 C18.238,7.617 16.207,12.5 15.113,19.218 L5.273,75.351 C4.41,80.273 3.984,82.933 3.984,83.32 C3.984,86.836 5.465,89.984 8.437,92.754 C11.402,95.531 14.8,96.914 18.632,96.914 C22.148,96.914 26.617,94.863 32.047,90.761 C37.476,86.66 41.636,83.789 44.531,82.148 C47.418,80.507 52.222,79.687 58.945,79.687 C64.41,79.687 69.375,81 73.828,83.613 C78.281,86.234 81.836,90.199 84.492,95.507 C87.144,100.82 88.476,107.226 88.476,114.726 C88.476,121.679 87.246,127.89 84.785,133.359 C82.324,138.828 78.824,143.125 74.297,146.25 C69.765,149.375 64.492,150.937 58.476,150.937 C51.914,150.937 45.976,149.004 40.664,145.136 C35.347,141.269 31.129,135.859 28.008,128.906 C24.804,121.328 19.922,117.539 13.359,117.539 C9.531,117.539 6.343,118.906 3.808,121.64 C1.269,124.375 0,127.265 0,130.312 C0,135.312 1.816,141.152 5.449,147.832 C9.082,154.511 15.25,160.429 23.965,165.586 C32.675,170.742 44.023,173.32 58.008,173.32 C70.508,173.32 81.543,170.586 91.113,165.117 C100.683,159.648 108.008,152.265 113.086,142.968 C118.164,133.672 120.703,123.359 120.703,112.031 C120.703,104.222 119.297,96.914 116.484,90.117 Z" id="Fill-2" fill="#091D28"></path>
                        <text id="Work" font-family="CarterOne, Carter One" font-size="48" font-weight="normal" letter-spacing="2.88" fill="#FEFCFB">
                            <tspan x="81" y="103">Work</tspan>
                        </text>
                    </g>
                    <g id="Group-3" transform="translate(367.000000, 0.000000)" stroke="#A1B2C5">
                        <path d="M13,236 L13,436" id="Line" stroke-width="10" stroke-linecap="square"></path>
                        <path d="M13,0 L13,200" id="Line-Copy" stroke-width="10" stroke-linecap="square"></path>
                        <circle id="Oval" stroke-width="2" cx="13" cy="218" r="13"></circle>
                        <path d="M13,472 L13,672" id="Line" stroke-width="10" stroke-linecap="square"></path>
                        <path d="M13,708 L13,908" id="Line-Copy-2" stroke-width="10" stroke-linecap="square"></path>
                        <path d="M13,943 L13,1143" id="Line-Copy-3" stroke-width="10" stroke-linecap="square"></path>
                        <circle id="Oval" stroke-width="2" cx="13" cy="454" r="13"></circle>
                        <circle id="Oval-Copy" stroke-width="2" cx="13" cy="690" r="13"></circle>
                        <circle id="Oval-Copy-2" stroke-width="2" cx="13" cy="926" r="13"></circle>
                        <path d="M13,1179 L13,1379" id="Line-Copy-4" stroke-width="10" stroke-linecap="square"></path>
                        <circle id="Oval-Copy-3" stroke-width="2" cx="13" cy="1161" r="13"></circle>
                        <path d="M13,1414 L13,1614" id="Line-Copy-4" stroke-width="10" stroke-linecap="square"></path>
                        <circle id="Oval-Copy-3" stroke-width="2" cx="13" cy="1396" r="13"></circle>
                        <path d="M13,1649 L13,1849" id="Line-Copy-5" stroke-width="10" stroke-linecap="square"></path>
                        <circle id="Oval-Copy-4" stroke-width="2" cx="13" cy="1631" r="13"></circle>
                    </g>
                    <g id="Group" transform="translate(57.000000, 1307.000000)">
                        <path d="M118.828,95.386 C116.25,88.437 112.594,82.402 107.871,77.281 C103.14,72.168 97.633,68.222 91.348,65.445 C85.058,62.675 78.199,61.285 70.781,61.285 C63.047,61.285 56.055,62.808 49.805,65.855 C43.551,68.902 37.769,73.589 32.461,79.918 C33.473,58.668 36.832,43.902 42.539,35.621 C45.351,31.562 48.808,28.339 52.91,25.953 C57.012,23.57 61.129,22.379 65.273,22.379 C70.43,22.379 74.957,23.804 78.867,26.656 C82.769,29.511 85.621,33.277 87.422,37.964 C88.746,41.64 90.82,44.511 93.633,46.578 C96.445,48.652 99.492,49.683 102.773,49.683 C106.523,49.683 109.605,48.379 112.031,45.761 C114.449,43.144 115.664,40.234 115.664,37.031 C115.664,31.718 113.73,26.172 109.863,20.39 C105.996,14.609 100.254,9.765 92.637,5.859 C85.019,1.953 76.207,0 66.211,0 C55.82,0 46.558,1.953 38.437,5.859 C30.308,9.765 23.394,15.547 17.695,23.203 C11.988,30.859 7.617,40.507 4.57,52.148 C1.523,63.789 0,76.992 0,91.757 C0,109.882 2.519,125.214 7.558,137.754 C12.598,150.293 19.879,159.765 29.414,166.172 C38.941,172.578 50.269,175.781 63.394,175.781 C74.801,175.781 85.016,173.261 94.039,168.222 C103.066,163.183 110.094,156.172 115.133,147.187 C120.172,138.203 122.691,128.203 122.691,117.187 C122.695,109.609 121.406,102.343 118.828,95.386 Z M83.672,143.023 C78.516,149.468 71.988,152.691 64.101,152.691 C55.816,152.691 48.941,149.175 43.476,142.144 C38.004,135.113 35.273,126.324 35.273,115.777 C35.273,109.214 36.621,103.496 39.316,98.609 C42.012,93.73 45.566,89.996 49.98,87.418 C54.39,84.839 59.019,83.55 63.867,83.55 C68.941,83.55 73.594,84.898 77.812,87.593 C82.031,90.289 85.351,94.199 87.773,99.312 C90.191,104.429 91.406,110.547 91.406,117.652 C91.406,128.125 88.828,136.578 83.672,143.023 Z" id="Fill-2" fill="#091D28"></path>
                        <text id="Lunch" font-family="CarterOne, Carter One" font-size="48" font-weight="normal" letter-spacing="2.88" fill="#FEFCFB">
                            <tspan x="74" y="104">Lunch</tspan>
                        </text>
                    </g>
                    <g id="Group-10" transform="translate(473.000000, 1551.000000)">
                        <path d="M113.906,3.516 C110.547,1.172 105.121,0 97.621,0 L19.57,0 C13.398,0 8.594,0.781 5.156,2.344 C1.719,3.91 0,7.383 0,12.773 C0,17.852 1.621,21.582 4.863,23.965 C8.105,26.348 13.008,27.539 19.57,27.539 L82.265,27.539 C72.422,40.039 63.926,52.602 56.777,65.215 C49.629,77.832 43.672,90.137 38.906,102.129 C34.14,114.125 30.703,124.414 28.594,133.008 C26.484,141.606 25.43,148.402 25.43,153.398 C25.43,159.887 26.875,164.785 29.765,168.106 C32.656,171.426 36.484,173.086 41.25,173.086 C46.25,173.086 50.254,171.543 53.262,168.457 C56.269,165.375 58.594,159.844 60.234,151.875 C60.937,148.441 61.758,143.481 62.695,136.992 C63.633,130.512 64.492,125.238 65.273,121.172 C66.055,117.113 67.383,111.992 69.258,105.82 C73.711,91.84 78.613,80.004 83.965,70.313 C89.316,60.629 94.512,52.523 99.551,45.996 C104.59,39.477 109.082,33.516 113.027,28.125 C116.973,22.734 118.945,18.398 118.945,15.117 C118.945,9.727 117.265,5.859 113.906,3.516 Z" id="Fill-2" fill="#091D28"></path>
                        <text id="Skillshare-(optional" font-family="CarterOne, Carter One" font-size="48" font-weight="normal" letter-spacing="2.88" fill="#FEFCFB">
                            <tspan x="66.396875" y="84">Skillshare</tspan>
                            <tspan x="119.31875" y="158" font-size="24">(optional)</tspan>
                        </text>
                    </g>
                </g>
            </g>
        </g>
    </g>
</svg>